<svg width="117" height="47" viewBox="0 0 117 47" fill="none" xmlns="http://www.w3.org/2000/svg">
<path d="M80.9703 15.6995C81.2716 15.6138 81.5299 15.528 81.7452 15.3993C81.9604 15.2706 82.1756 15.1419 82.3478 14.9703C82.52 14.7988 82.6491 14.6272 82.7352 14.4556V12.1822H81.0134C80.4968 12.1822 80.0233 12.2251 79.6789 12.3538C79.2915 12.4395 78.9902 12.6111 78.775 12.7827C78.5597 12.9543 78.3875 13.1688 78.2584 13.4261C78.1293 13.6835 78.0862 13.9409 78.0862 14.2411C78.0862 14.4556 78.1293 14.713 78.2153 14.8845C78.3014 15.099 78.4306 15.2706 78.6028 15.3993C78.775 15.528 78.9471 15.6138 79.2054 15.6995C79.4637 15.7853 79.722 15.8282 80.0233 15.8282C80.3677 15.7853 80.669 15.7853 80.9703 15.6995ZM83.0365 17.5869C82.9935 17.3724 82.9505 17.158 82.9074 16.9435C82.7352 17.158 82.52 17.3295 82.2617 17.5011C82.0034 17.6727 81.7451 17.8443 81.4438 17.973C81.1425 18.1017 80.7981 18.2303 80.4538 18.3161C80.1094 18.4019 79.722 18.4448 79.2915 18.4448C78.6028 18.4448 78.0001 18.359 77.4405 18.1446C76.8809 17.973 76.4074 17.6727 75.9769 17.3295C75.5895 16.9864 75.2452 16.5574 75.0299 16.0856C74.8147 15.6138 74.6855 15.099 74.6855 14.4985C74.6855 13.7693 74.8147 13.1259 75.116 12.5682C75.4173 12.0106 75.8048 11.5388 76.4074 11.1956C76.924 10.8524 77.5266 10.5951 78.3014 10.4235C79.0332 10.2519 79.8942 10.1661 80.8842 10.1661H82.7783V9.39401C82.7783 9.09375 82.7352 8.79349 82.6491 8.57901C82.563 8.32165 82.3908 8.10717 82.2187 7.93559C82.0034 7.76401 81.7451 7.59243 81.4438 7.50664C81.1425 7.42086 80.7981 7.37796 80.3677 7.37796C80.0233 7.37796 79.722 7.42086 79.4637 7.50664C79.2054 7.59243 78.9902 7.72112 78.818 7.8498C78.6889 7.97849 78.5597 8.15007 78.5167 8.36454C78.4306 8.57901 78.4306 8.79349 78.4306 9.00796H75.073C75.073 8.45033 75.2021 7.93559 75.4604 7.42085C75.7187 6.90612 76.063 6.47717 76.5365 6.09112C77.0101 5.70506 77.5697 5.4048 78.2584 5.19033C78.9471 4.97585 79.722 4.84717 80.6259 4.84717C81.4008 4.84717 82.1756 4.93296 82.8644 5.14743C83.5531 5.31901 84.1557 5.61927 84.6293 6.00533C85.1458 6.39138 85.5332 6.86322 85.7915 7.42085C86.0928 7.97849 86.222 8.6648 86.222 9.43691V15.0561C86.222 15.7424 86.265 16.343 86.3511 16.8148C86.4372 17.2867 86.5663 17.6727 86.7385 18.0159V18.1446H83.2948C83.1657 18.0159 83.0796 17.8014 83.0365 17.5869Z" fill="#05B557"/>
<path d="M96.1229 5.01887H101.03V7.50676H96.1229V13.126C96.1229 13.5978 96.1659 13.9839 96.2951 14.327C96.4242 14.6273 96.5534 14.8847 96.7686 15.0991C96.9838 15.3136 97.199 15.4423 97.5004 15.5281C97.8017 15.6139 98.103 15.6568 98.4474 15.6568C98.7057 15.6568 98.9639 15.6568 99.2222 15.6139C99.4805 15.571 99.7388 15.571 99.9971 15.5281C100.255 15.4852 100.471 15.4423 100.686 15.3994C100.901 15.3565 101.073 15.3136 101.245 15.2707L101.59 17.587C101.375 17.7157 101.073 17.8444 100.772 17.9302C100.471 18.016 100.126 18.1018 99.7818 18.1876C99.4375 18.2733 99.05 18.3162 98.6626 18.3591C98.2752 18.402 97.8878 18.402 97.5434 18.402C96.8116 18.402 96.1659 18.3162 95.5633 18.1018C94.9606 17.9302 94.4871 17.6299 94.0567 17.201C93.6262 16.8149 93.3249 16.3002 93.0666 15.6997C92.8514 15.0991 92.7222 14.327 92.7222 13.4691V7.50676H89.709V5.01887H92.7222V1.80176H96.0798L96.1229 5.01887Z" fill="#05B557"/>
<path d="M109.811 7.67842C109.51 7.8071 109.209 8.02157 108.993 8.23605C108.735 8.49342 108.563 8.79368 108.391 9.13684C108.219 9.48 108.089 9.86605 108.046 10.295H113.599V10.0376C113.599 9.69447 113.513 9.35131 113.384 9.05105C113.255 8.75079 113.083 8.45052 112.868 8.23605C112.652 8.02157 112.351 7.85 112.05 7.72131C111.705 7.59263 111.361 7.50684 110.93 7.50684C110.457 7.46394 110.113 7.54973 109.811 7.67842ZM108.52 17.8445C107.702 17.5013 106.97 17.0724 106.411 16.4718C105.808 15.9142 105.377 15.2279 105.033 14.4558C104.732 13.6837 104.56 12.8687 104.56 11.9679V11.4961C104.56 10.5095 104.732 9.56579 105.033 8.75078C105.334 7.93578 105.808 7.20657 106.368 6.60605C106.927 6.00552 107.616 5.53368 108.391 5.19052C109.166 4.84736 110.026 4.67578 110.93 4.67578C111.877 4.67578 112.738 4.84736 113.47 5.14762C114.202 5.44789 114.848 5.87683 115.364 6.47736C115.881 7.03499 116.268 7.72131 116.526 8.49342C116.785 9.30842 116.914 10.1663 116.914 11.11V12.5255L108.003 12.5684V12.6113C108.132 13.1261 108.262 13.555 108.434 13.8553C108.606 14.1555 108.864 14.4558 109.166 14.7132C109.467 14.9705 109.811 15.185 110.242 15.3137C110.629 15.4424 111.06 15.5282 111.533 15.5282C112.179 15.5282 112.824 15.3995 113.47 15.1421C114.073 14.8847 114.589 14.4987 114.977 14.0268L116.656 15.8284C116.225 16.429 115.536 16.9866 114.632 17.5013C113.685 18.0161 112.609 18.2305 111.318 18.2305C110.285 18.3163 109.338 18.1876 108.52 17.8445Z" fill="#05B557"/>
<path d="M9.38411 28.0535C9.81457 28.1393 10.202 28.1822 10.4603 28.268L9.94371 31.7424C9.4702 31.6566 8.99669 31.5709 8.52318 31.4851C8.09272 31.4422 7.61921 31.4422 7.18874 31.4422C6.75828 31.4422 6.32781 31.4851 5.98344 31.5709C5.63907 31.6567 5.2947 31.7853 4.99338 31.914C4.64901 32.0856 4.34768 32.343 4.13245 32.6003C3.87417 32.9006 3.70199 33.2009 3.5298 33.5869V41.694H0.0430457L0 28.1822H3.22848L3.35762 30.0695L3.40066 30.3698C3.96027 29.5977 4.60596 28.9972 5.3808 28.5682C6.15563 28.1393 6.97351 27.9248 7.87748 27.9248C8.48013 27.9677 8.95364 28.0106 9.38411 28.0535Z" fill="#05B557"/>
<path d="M18.2518 23.9785C18.3379 23.7641 18.467 23.5496 18.6392 23.378C18.8114 23.2064 19.0266 23.0778 19.2849 22.992C19.5432 22.9062 19.8015 22.8633 20.1028 22.8633C20.7054 22.8633 21.222 23.0349 21.5664 23.378C21.9107 23.7212 22.126 24.1501 22.126 24.7078C22.126 25.2654 21.9538 25.6943 21.5664 26.0375C21.222 26.3807 20.7054 26.5522 20.1028 26.5522C19.8015 26.5522 19.5432 26.5093 19.2849 26.4235C19.0266 26.3378 18.8114 26.2091 18.6392 26.0375C18.467 25.8659 18.3379 25.6943 18.2518 25.437C18.1657 25.2225 18.1227 24.9651 18.1227 24.7078C18.1227 24.4504 18.1657 24.193 18.2518 23.9785ZM21.9107 28.1822L21.9538 38.863H25.6127V41.6941L14.5498 41.737V38.9059H18.424V31.0562H14.5498V28.2251L21.9107 28.1822Z" fill="#05B557"/>
<path d="M32.328 36.6324C32.4571 37.1042 32.6293 37.5332 32.8445 37.8763C33.0598 38.2624 33.3611 38.5197 33.7485 38.7342C34.0929 38.9487 34.5233 39.0345 35.0399 39.0345C35.3412 39.0345 35.5995 38.9916 35.8578 38.9487C36.116 38.9058 36.3313 38.82 36.5465 38.6913C36.7617 38.5626 36.9339 38.434 37.1061 38.2624C37.2783 38.0908 37.4074 37.9192 37.5366 37.7047V31.9997C37.4074 31.7853 37.2783 31.5708 37.0631 31.3992C36.8909 31.2276 36.6756 31.0989 36.4604 30.9703C36.2882 30.8845 36.073 30.7987 35.8147 30.7558C35.5995 30.7129 35.3412 30.67 35.0829 30.67C34.6094 30.67 34.179 30.7987 33.7915 30.9703C33.4472 31.1847 33.1458 31.485 32.8876 31.8282C32.6293 32.2142 32.4571 32.6432 32.371 33.115C32.2419 33.6297 32.1988 34.1445 32.1988 34.7021V34.9595C32.1558 35.6458 32.1988 36.1605 32.328 36.6324ZM29.0564 31.9997C29.3147 31.1418 29.6591 30.4126 30.1326 29.8121C30.6061 29.2116 31.1657 28.7397 31.8545 28.3966C32.5432 28.0534 33.275 27.8818 34.1359 27.8818C34.6094 27.8818 34.9968 27.9247 35.3843 28.0105C35.7717 28.0963 36.116 28.225 36.4174 28.3966C36.6326 28.5253 36.8478 28.6539 37.0631 28.8255C37.2783 28.9971 37.4505 29.1687 37.6227 29.3832L37.7518 28.0963H40.9372L40.9803 41.1792C40.9803 42.08 40.8081 42.895 40.5068 43.6242C40.2055 44.3534 39.775 44.954 39.2154 45.4258C38.6558 45.8976 37.967 46.2837 37.1922 46.5411C36.4174 46.7984 35.5134 46.9271 34.5664 46.9271C34.179 46.9271 33.7055 46.8842 33.2319 46.7984C32.7584 46.7126 32.2849 46.584 31.8545 46.4124C31.3809 46.2408 30.9505 46.0263 30.5631 45.7261C30.1326 45.4687 29.7882 45.1255 29.53 44.7824L31.0796 42.6805C31.2949 42.9379 31.5531 43.1524 31.8114 43.3669C32.0697 43.5813 32.328 43.71 32.6293 43.8387C32.8876 43.9674 33.1889 44.0532 33.4902 44.139C33.7915 44.1819 34.0929 44.2248 34.3942 44.2248C34.9107 44.2248 35.3412 44.139 35.7717 44.0103C36.1591 43.8816 36.5035 43.6671 36.7617 43.3669C37.02 43.1095 37.1922 42.8092 37.3213 42.4232C37.4505 42.0371 37.4935 41.6511 37.4935 41.1792V40.4071C37.3213 40.5787 37.1492 40.7503 36.977 40.9219C36.8048 41.0934 36.5896 41.2221 36.3743 41.3079C36.073 41.4795 35.7286 41.6082 35.3412 41.694C34.9538 41.7797 34.5664 41.8226 34.1359 41.8226C33.275 41.8226 32.5432 41.6511 31.8545 41.3079C31.1657 40.9647 30.6061 40.4929 30.1326 39.8924C29.6591 39.2918 29.2717 38.5626 29.0134 37.7476C28.7551 36.9326 28.626 35.989 28.626 35.0024V34.745C28.669 33.8013 28.7982 32.8576 29.0564 31.9997Z" fill="#05B557"/>
<path d="M48.4272 29.2544C48.6424 29.0399 48.8577 28.8254 49.116 28.6538C49.4603 28.3965 49.8908 28.182 50.3213 28.0533C50.7517 27.9246 51.2252 27.8388 51.6987 27.8388C52.3875 27.8388 53.0762 27.9246 53.6358 28.1391C54.2385 28.3536 54.755 28.6967 55.1855 29.1257C55.616 29.5546 55.9603 30.1551 56.1756 30.8415C56.4338 31.5278 56.5199 32.3857 56.5199 33.3722V41.5652H53.0332V33.3722C53.0332 32.9004 52.9901 32.4715 52.861 32.1283C52.7319 31.7851 52.5597 31.4849 52.3444 31.2704C52.1292 31.0559 51.8279 30.8844 51.5266 30.7986C51.2252 30.7128 50.8378 30.627 50.4504 30.627C50.1491 30.627 49.8477 30.6699 49.5895 30.7128C49.3312 30.7557 49.0729 30.8415 48.8577 30.9701C48.6424 31.0559 48.4703 31.1846 48.2981 31.3133C48.1259 31.442 47.9968 31.6136 47.8676 31.7851L47.9107 41.5223H44.4239L44.3809 22.4341H47.8676V29.9407C48.0398 29.7262 48.255 29.4688 48.4272 29.2544Z" fill="#05B557"/>
<path d="M66.1623 28.053H71.2417V30.6267H66.1623V36.4175C66.1623 36.8894 66.2053 37.3183 66.3344 37.6615C66.4636 38.0046 66.5927 38.262 66.808 38.4336C67.0232 38.6481 67.2815 38.7767 67.5828 38.8625C67.8841 38.9483 68.2285 38.9912 68.5729 38.9912C68.8311 38.9912 69.1325 38.9912 69.3907 38.9483C69.649 38.9054 69.9503 38.9054 70.2086 38.8625C70.4669 38.8196 70.6821 38.7767 70.8974 38.7338C71.1126 38.691 71.3278 38.6481 71.457 38.6052L71.8013 41.0073C71.5431 41.136 71.2848 41.2646 70.9404 41.3933C70.596 41.4791 70.2517 41.5649 69.9073 41.6507C69.5199 41.7365 69.1755 41.7794 68.745 41.8223C68.3576 41.8652 67.9702 41.8652 67.5828 41.8652C66.851 41.8652 66.1623 41.7794 65.5596 41.5649C64.957 41.3504 64.4404 41.0502 64.0099 40.6641C63.5795 40.2781 63.2351 39.7204 63.0199 39.1199C62.8046 38.4765 62.6755 37.7044 62.6755 36.8465V30.7125H59.5762V28.1388H62.6755V24.8359H66.1623V28.053Z" fill="#05B557"/>
<path d="M83.768 37.2757C83.6819 37.1041 83.5097 36.9755 83.2515 36.8468C82.9932 36.7181 82.6919 36.5894 82.2614 36.4607C81.874 36.332 81.3144 36.2462 80.7117 36.1176C79.9369 35.946 79.2051 35.7744 78.5594 35.517C77.9137 35.3026 77.3541 35.0023 76.8806 34.6591C76.4071 34.316 76.0627 33.9299 75.7614 33.501C75.5031 33.072 75.374 32.5573 75.374 31.9997C75.374 31.442 75.5031 30.9273 75.7614 30.4126C76.0197 29.8978 76.4071 29.4689 76.9236 29.0828C77.4402 28.6968 78.0429 28.3965 78.7316 28.182C79.4634 27.9676 80.2382 27.8389 81.1422 27.8389C82.0892 27.8389 82.9501 27.9247 83.6819 28.182C84.4137 28.3965 85.0594 28.6968 85.619 29.0828C86.1356 29.4689 86.523 29.9407 86.8243 30.4554C87.0826 30.9702 87.2548 31.5707 87.2548 32.1712H83.768C83.768 31.9568 83.725 31.7423 83.6389 31.5278C83.5528 31.3133 83.4667 31.1418 83.2945 31.0131C83.0793 30.7986 82.821 30.627 82.4336 30.4983C82.0892 30.3697 81.6587 30.3268 81.1422 30.3268C80.7117 30.3268 80.3243 30.3697 80.023 30.4554C79.7217 30.5412 79.4634 30.6699 79.2481 30.7986C79.076 30.9273 78.9468 31.0989 78.8177 31.2704C78.7316 31.442 78.6885 31.6565 78.6885 31.8281C78.6885 32.0426 78.7316 32.2141 78.8177 32.3857C78.9038 32.5573 79.0329 32.7289 79.2481 32.8576C79.4634 32.9862 79.7647 33.1149 80.1091 33.2436C80.4965 33.3723 80.927 33.4581 81.5296 33.5439C82.3475 33.6726 83.1223 33.8441 83.8111 34.0586C84.4998 34.2731 85.1025 34.5305 85.619 34.8736C86.1356 35.2168 86.523 35.6028 86.8243 36.0747C87.1256 36.5465 87.2548 37.1041 87.2548 37.7476C87.2548 38.3481 87.1256 38.9057 86.8243 39.4205C86.523 39.9352 86.1356 40.3641 85.619 40.7073C85.1025 41.0934 84.4568 41.3507 83.6819 41.5652C82.9501 41.7797 82.0892 41.8655 81.1852 41.8655C80.1521 41.8655 79.2481 41.7368 78.4733 41.4794C77.6985 41.222 77.0528 40.8789 76.4932 40.4499C75.9766 40.021 75.5462 39.5491 75.2879 38.9915C75.0296 38.4339 74.9005 37.9191 74.8574 37.3615H78.172C78.215 37.7476 78.3011 38.0478 78.4733 38.3052C78.6455 38.5626 78.8607 38.777 79.1621 38.9486C79.4203 39.1202 79.7647 39.2489 80.1091 39.2918C80.4534 39.3776 80.8409 39.4205 81.1852 39.4205C81.6157 39.4205 82.0462 39.3776 82.3475 39.2918C82.6919 39.206 82.9501 39.1202 83.1654 38.9915C83.3806 38.8628 83.5097 38.6912 83.6389 38.5197C83.725 38.3481 83.8111 38.1336 83.8111 37.962C83.9402 37.6189 83.8541 37.4044 83.768 37.2757Z" fill="#05B557"/>
<path d="M6.28477 15.8709C6.58609 15.7851 6.84437 15.6994 7.0596 15.5707C7.27483 15.442 7.49007 15.3133 7.66225 15.1417C7.83444 14.9701 7.96358 14.7986 8.04967 14.627V12.3536H6.32782C5.81126 12.3536 5.33775 12.3965 4.99338 12.5251C4.60596 12.6109 4.30464 12.7825 4.0894 12.9541C3.87417 13.1257 3.70199 13.3401 3.57285 13.5975C3.44371 13.8549 3.40066 14.1122 3.40066 14.4125C3.40066 14.627 3.44371 14.8844 3.5298 15.0559C3.61589 15.2704 3.74503 15.442 3.91722 15.5707C4.0894 15.6994 4.26159 15.7851 4.51987 15.8709C4.77815 15.9567 5.03642 15.9996 5.33775 15.9996C5.68212 15.9996 6.02649 15.9567 6.28477 15.8709ZM8.35099 17.8012C8.30795 17.5867 8.2649 17.3723 8.22186 17.1149C8.04967 17.3294 7.83444 17.5009 7.57616 17.6725C7.31788 17.8441 7.0596 18.0157 6.75828 18.1444C6.45695 18.273 6.11258 18.4017 5.76821 18.4875C5.42384 18.5733 5.03643 18.6162 4.60596 18.6162C3.91722 18.6162 3.31457 18.5304 2.75497 18.3159C2.19536 18.1015 1.72185 17.8441 1.29139 17.5009C0.903974 17.1578 0.559602 16.7288 0.344371 16.257C0.129139 15.7851 0 15.2704 0 14.6699C0 13.9407 0.129139 13.2972 0.430464 12.7396C0.731788 12.182 1.11921 11.7101 1.72185 11.367C2.23841 11.0238 2.84106 10.7665 3.61589 10.5949C4.34768 10.4233 5.20861 10.3375 6.19868 10.3375H8.09272V9.5654C8.09272 9.26514 8.04967 8.96487 7.96358 8.7504C7.87748 8.49303 7.7053 8.27856 7.53311 8.10698C7.31788 7.9354 7.0596 7.76382 6.75828 7.67803C6.45695 7.59224 6.11258 7.54935 5.68212 7.54935C5.33775 7.54935 5.03642 7.59224 4.77815 7.67803C4.51987 7.76382 4.30464 7.89251 4.13245 8.02119C4.00331 8.14987 3.87417 8.32145 3.83113 8.53593C3.74503 8.7504 3.74503 8.96487 3.74503 9.17935H0.387417C0.387417 8.62172 0.516556 8.10698 0.774834 7.59224C1.03311 7.0775 1.37748 6.64856 1.85099 6.2625C2.3245 5.87645 2.88411 5.57619 3.57285 5.36171C4.26159 5.14724 5.03642 5.01855 5.9404 5.01855C6.71523 5.01855 7.49007 5.10434 8.17881 5.31882C8.86755 5.4904 9.4702 5.79066 9.94371 6.17671C10.4603 6.56277 10.8477 7.03461 11.106 7.59224C11.4073 8.14987 11.5364 8.83619 11.5364 9.6083V15.2275C11.5364 15.9138 11.5795 16.5144 11.6656 16.9862C11.7517 17.458 11.8808 17.8441 12.053 18.1873V18.4017H8.60927C8.48013 18.1873 8.43709 18.0157 8.35099 17.8012Z" fill="#05B557"/>
<path d="M22.0396 15.6993C22.3409 15.6135 22.5992 15.4848 22.8144 15.2703C23.0296 15.0988 23.2018 14.8843 23.331 14.6269C23.4601 14.3695 23.5032 14.1122 23.5032 13.8119H26.6886C26.6886 14.4982 26.5595 15.0988 26.2581 15.6993C25.9568 16.2998 25.5694 16.7717 25.0528 17.2006C24.5363 17.6295 23.9336 17.9727 23.2879 18.1872C22.5992 18.4445 21.9104 18.5303 21.1356 18.5303C20.1025 18.5303 19.1985 18.3588 18.4667 18.0156C17.6919 17.6724 17.0462 17.2006 16.5296 16.6001C16.0131 15.9995 15.6257 15.3132 15.3674 14.4982C15.1091 13.6832 14.98 12.8253 14.98 11.9245V11.5814C14.98 10.6806 15.1091 9.7798 15.3674 9.0077C15.6257 8.1927 16.0131 7.50638 16.5296 6.90585C17.0462 6.30532 17.6919 5.83348 18.4667 5.49032C19.2416 5.14717 20.1025 4.97559 21.1356 4.97559C21.9535 4.97559 22.6853 5.10427 23.374 5.31874C24.0628 5.57611 24.6654 5.87638 25.182 6.34822C25.6985 6.77717 26.0429 7.3348 26.3442 7.93533C26.6025 8.57875 26.7316 9.26506 26.7316 10.0372H23.5462C23.5462 9.69401 23.5032 9.39375 23.4171 9.13638C23.2879 8.83612 23.1157 8.57875 22.9005 8.40717C22.6853 8.19269 22.427 8.02112 22.1257 7.89243C21.8244 7.76375 21.48 7.72085 21.1356 7.72085C20.6191 7.72085 20.1455 7.84954 19.8012 8.06401C19.4568 8.27848 19.1985 8.57875 18.9833 8.92191C18.7681 9.26506 18.6389 9.69401 18.5528 10.1659C18.4667 10.6377 18.4237 11.1095 18.4237 11.6243V11.9674C18.4237 12.4822 18.4667 12.954 18.5528 13.4259C18.6389 13.8977 18.7681 14.3266 18.9833 14.6698C19.1985 15.013 19.4568 15.3132 19.8012 15.5277C20.1455 15.7422 20.6191 15.8709 21.1356 15.8709C21.4369 15.8709 21.7383 15.828 22.0396 15.6993Z" fill="#05B557"/>
<path d="M36.3739 5.19025H41.2812V7.67815H36.3739V13.2974C36.3739 13.7692 36.4169 14.1553 36.5461 14.4984C36.6752 14.7987 36.8043 15.0561 37.0196 15.2705C37.2348 15.485 37.45 15.6137 37.7514 15.6995C38.0527 15.7853 38.354 15.8282 38.6984 15.8282C38.9566 15.8282 39.2149 15.8282 39.4732 15.7853C39.7315 15.7424 39.9898 15.7424 40.248 15.6995C40.5063 15.6566 40.7216 15.6137 40.9368 15.5708C41.152 15.5279 41.3242 15.485 41.4964 15.4421L41.8408 17.7584C41.6255 17.8871 41.3242 18.0158 41.0229 18.1016C40.7216 18.1874 40.3772 18.2732 40.0328 18.3589C39.6884 18.4447 39.301 18.4876 38.9136 18.5305C38.5262 18.5734 38.1388 18.5734 37.7944 18.5734C37.0626 18.5734 36.4169 18.4876 35.8143 18.2732C35.2116 18.1016 34.7381 17.8013 34.3076 17.3724C33.8772 16.9863 33.5759 16.4716 33.3176 15.8711C33.1023 15.2705 32.9732 14.4984 32.9732 13.6405V7.67815H29.96V5.19025H32.9732V1.97314H36.3308L36.3739 5.19025Z" fill="#05B557"/>
<path d="M49.6754 1.07237C49.7615 0.857896 49.8906 0.643421 50.0628 0.514737C50.235 0.343158 50.4502 0.257368 50.6654 0.128684C50.9237 0.0428944 51.182 0 51.4833 0C52.086 0 52.5595 0.171579 52.9039 0.514737C53.2482 0.857895 53.4204 1.28684 53.4204 1.80158C53.4204 2.31632 53.2482 2.74527 52.9039 3.08842C52.5595 3.43158 52.086 3.60316 51.4833 3.60316C51.182 3.60316 50.9237 3.56027 50.6654 3.47448C50.4072 3.38869 50.235 3.26 50.0628 3.08842C49.8906 2.91684 49.7615 2.74527 49.6754 2.53079C49.5893 2.31632 49.5462 2.05895 49.5462 1.80158C49.5032 1.54421 49.5462 1.28684 49.6754 1.07237ZM53.2052 5.14737L53.2482 15.5279H56.8211V18.2732L46.1025 18.3161V15.5708H49.8476V7.93553H46.1025V5.19027L53.2052 5.14737Z" fill="#05B557"/>
<path d="M59.2314 5.10449H62.7612L65.6454 14.3269L65.8606 15.2706L66.0328 14.3269L68.8738 5.10449H72.4036L67.4533 18.1874H64.2679L59.2314 5.10449Z" fill="#05B557"/>
<path d="M91.5596 43.0665L98.3609 23.3349L101.589 23.292L94.8311 43.0665H91.5596Z" fill="#1423CB"/>
<path d="M106.97 43.0236L113.728 23.292H117L110.199 43.0236H106.97Z" fill="#1423CB"/>
</svg>
