<?xml version="1.0" encoding="UTF-8"?>
<svg id="Layer_1" xmlns="http://www.w3.org/2000/svg" version="1.1" viewBox="0 0 472.06 185.34">
  <!-- Generator: Adobe Illustrator 30.5.1, SVG Export Plug-In . SVG Version: 2.1.4 Build 3)  -->
  <g>
    <path fill="#3694d1" d="M28.25,28.35c.16.32-7.56-4.42-8.05-11.1-.56-6.84,3.62-11.75,3.7-11.42,0,1.21.64,2.17.64,3.06.08,2.98-.48,4.43-.48,5.55,0,1.37-.16,2.82.48,4.19.56.88,2.57,1.93,3.3,3.86.4,2.49.4,4.75.4,5.55v.32Z"/>
    <path fill="#3694d1" d="M48.85,9.77C40.4-6.97,26.08,2.84,26.16,3.01c.16.64.32,1.29.48,1.77,0,.4.24.81.32,1.29.08.4,0,.97.08,1.37.08.48-.08.8-.08,1.13,0,.56.08,1.21.08,1.77.08.4.4.81.4,1.13,0,3.62-.65,4.02.24,6.03.24.48.56.97,1.04,1.69.56.73,1.29,1.93,1.69,2.9.32,2.01.4,5.63.4,7.16,0,.24,4.67,2.17,9.98-.25,5.39-2.41,10.86-9.17,7.96-19.23h.08Z"/>
    <path fill="#3694d1" d="M48.21,183.33c-.16,1.45-.56,1.69-.88,1.69-1.93-.08-3.06-.08-5.48-1.77-3.46-2.5-3.54-5.79-3.54-5.95v-63.72c-.48-1.93-1.77-2.1-1.77-2.1,0,0-1.53-.08-1.77,2.34,0,0-.16,64.61,0,63.81,0,0-1.45,7-8.85,7.72-7.8-.97-9.33-6.68-9.33-7.72V59.65s-.16-1.05-.88-1.05c-.97-.16-.97.97-.97.97,0,0,.08,40.07,0,40.71-.48,4.02-3.06,6.6-7.24,6.6s-6.84-3.3-7.4-6.68c-.08-.73,0-12.07,0-20.6,0-12.47-.32-24.94.24-28,.72-2.66,4.83-14.89,18.67-16.82,6.92-.81,9.33-.65,9.33-.56.08.56,0,.81.32,3.22.08.24.4,1.69.96,3.14.48,1.28.81.88,1.13,1.37.57.88,2.74,4.1,3.62,6.12.32.88-.24.88.16,3.3.24,1.37.64,2.98.96,5.63.32,2.66.88,5.47,1.05,8.29.08,2.97-.16,5.95.08,7.56.16.97.96,1.61,1.53,2.5.08.08.4.64.4,1.37,0,1.93-.4,5.07-.32,7.48,0,.81-.24,1.77.24,3.62.17.57.48.89.73,1.53.16.4.4,1.05.56,1.53.48,1.77.64,1.77,1.29,4.42,0,.32-.08.73,0,1.21.16,1.13.56,2.98.88,4.51.08.56.32.8.48,1.37.16.56.16,1.37.24,2.01.08,1.45-.4,2.98,0,4.67.24,1.13,1.05,2.02,1.45,3.7.16,1.45.24,1.77.8,4.02,0,.32-.24.88-.08,1.77,0,.64.4,1.2.56,2.09.24.89.08,2.25.08,3.31-.08,1.45-.48,2.81-.64,4.18-.16.49-.96,1.29-.88,2.5.08.64-.4.8-.24,1.61.24.8-.08.56,0,1.45.08.48.32,1.37.4,1.85,0,.32.08.89.16,1.21v1.45c.16.64.64,1.45.73,2.09.08.57-.16,1.77-.08,2.33.16.88-.08.73.08,1.53.08.64.16,1.37.24,2.01.16.72.57,1.93.57,2.49.08.64,0,.4.16,1.21.08.49-.32.81-.16,1.29,0,.73.08.88,0,2.01-.16,1.04.64.64.4,2.25-.08.73.64,1.77.8,2.58.16.72-.4,1.69-.48,2.33-.08.81-1.29,2.09-1.21,3.62.08.64.88,3.14,1.13,3.87.32.56-1.13,2.49-.97,3.22.24,1.37,1.61,3.06,1.77,4.51.16,1.93.16,3.7.4,5.07.08.56-.16.49-.08.97.08.48.64,1.61.64,1.77"/>
    <path fill="#3694d1" d="M54,181.8c1.37-1.85,1.85-3.78,1.85-3.94,0-6.92-.08-116.44,0-118.21,0-.16.64-.56.8-.56.48,0,.97.48.97.56v40.16c.16,1.77,1.53,6.92,7.72,7,6.12.08,7.16-6.36,7.4-6.59.24-.33,0-25.75,0-42.33,0-5.63-1.53-10.54-4.83-14.73-4.26-5.55-9.09-7.72-19.95-8.53-15.21-.97-16.74-.56-16.65-.4v1.29c.08.88.48,1.93.72,3.14.08.56,1.45,2.81,2.25,3.94.24.4.88,2.57,1.45,3.86.32.64.4.4.81,1.21.32,1.05.88,3.22,1.29,5.64.16.88.41,1.85.48,3.22,0,.81.64,1.37.72,2.17,0,.72.08,1.93.08,2.74.08,2.33.16,5.39.4,7.48.24,1.61.72,2.25.88,3.54.08.81.24,1.37.8,2.34.16.24.24.4.16,2.25,0,.49.48,1.05.4,1.77,0,1.69-.56,3.86-.48,5.07.08.64-.16.64.16,1.77.16.57.8,1.85,1.21,3.06.16.32-.08,1.29,0,1.45.41,1.52.64,2.25,1.29,4.58.16.8-.24,1.61,0,2.9.32,1.29,1.21,2.98,1.37,4.83.08,1.37,0,4.1.24,6.12.16,1.28.64,1.61.96,3.46,0,.24.24.88.41,1.45.16.48.24,1.37.4,1.93.16.56.32.73.48,1.21.16.4.16,1.53.24,2.01.24.81.48.89.64,1.53.16.81.32.16.08,3.14-.08,1.37-1.05,4.26-1.2,5.55-.16,1.12.32,4.5.72,8.77.08.56.4,1.12.48,1.69.16.89.16,1.69.24,2.5.08.88.4,1.61.48,2.41.16.97.16,2.09.24,2.98.16,1.93.4,3.78.72,5.47.08.81.08,1.45-.08,2.5-.08.48-.48.72-.56,1.77-.08.65-.16,2.01-.32,3.22,0,.89,0,1.78-.08,2.42-.08.4.08,1.69-.08,2.25-.08,1.37-.32,2.41.16,4.99,0,.24.16,1.12.24,1.37.4.57.56.73.72,1.37.24.97.08,2.09.16,2.82.4,3.38.08,7.8-.32,9.17.64.97,2.74-1.37,3.7-2.74"/>
    <path fill="#3694d1" d="M104.07,94.88v-48.79l12.71-2.04v50.83h-12.71ZM110.43,39.6c-4.27,0-7.78-3.59-7.78-8.05s3.61-8.05,7.97-8.05,7.68,3.59,7.68,8.05-3.51,8.05-7.87,8.05"/>
    <path fill="#3694d1" d="M158.99,56.57c-1.23-.68-2.28-.97-3.7-.97-2.85,0-5.41,1.36-7.78,4.17v35.11h-12.71v-33.17c0-6.69-.76-11.74-1.8-14.55l11.38-3.1c1.14,2.04,1.8,4.27,1.99,7.08,2.75-3.78,6.64-7.08,11.38-7.08,1.89,0,2.75.2,4.74,1.07l-3.51,11.44Z"/>
    <path fill="#3694d1" d="M199.86,92.94c-3.42,2.04-7.21,3.1-11.86,3.1-13.37,0-21.15-9.51-21.15-25.6,0-11.45,4.27-19.01,9.96-22.99,3.23-2.23,7.97-3.69,12.05-3.69,3.23,0,6.74.78,9.39,2.23,1.8.97,2.66,1.65,4.74,3.49l-6.16,8.53c-2.56-2.42-5.31-3.88-7.69-3.88-5.69,0-8.25,5.05-8.25,16.68,0,6.5.85,10.38,2.47,12.51,1.33,1.75,3.51,2.81,5.69,2.81,2.94,0,5.6-1.26,8.73-4.08l.76-.68,5.78,7.86c-1.9,1.94-2.75,2.62-4.46,3.69"/>
    <path fill="#3694d1" d="M229.96,96.05c-6.45,0-11.57-2.91-13.09-7.27-.76-2.14-.86-3.11-.86-7.66v-26.97h-4.84v-8.92h4.84c0-4.85,0-8.05.47-11.74l12.9-3.3c-.47,4.56-.76,9.99-.76,15.03h11.39l-3.22,8.92h-8.16v24.93c0,6.31,1.14,7.95,5.5,7.95,1.14,0,2.28-.29,4.55-.97l1.62,7.76c-3.7,1.55-7.02,2.23-10.34,2.23"/>
  </g>
  <rect fill="#231f20" x="104.24" y="122.77" width="2.76" height="23.51"/>
  <g>
    <path fill="#231f20" d="M122.18,146.28v-11.49c0-.46-.01-.83-.03-1.12-.02-.3-.06-.55-.1-.75-.04-.2-.11-.38-.19-.53-.08-.14-.18-.29-.29-.42-.41-.47-1.04-.71-1.89-.71-.35,0-.73.06-1.16.19-.42.12-.85.29-1.27.51-.42.21-.84.47-1.25.77-.41.3-.77.6-1.07.92v12.65h-2.58v-13.16c0-1.23-.22-2.43-.65-3.6l2.62-.72s.08.15.17.38c.09.23.19.56.29.98.1.42.15.86.15,1.32,1.77-1.76,3.57-2.65,5.4-2.65.94,0,1.79.22,2.55.68.76.45,1.31,1.06,1.65,1.82.28.62.41,1.28.41,1.99v12.96h-2.75Z"/>
    <path fill="#231f20" d="M136.43,131.24h-3.58v11.05c0,.96.15,1.63.47,1.99.31.37.89.55,1.74.55.39,0,.7-.03.94-.09.24-.06.49-.14.74-.26l.38,1.72c-.87.46-1.88.69-3.03.69-.46,0-.86-.04-1.21-.12-.35-.08-.68-.2-.99-.36-.58-.3-1-.73-1.24-1.27-.25-.55-.37-1.26-.37-2.14v-11.77h-2.24v-2.07h2.24c0-.41.01-.87.03-1.38.02-.51.05-.98.08-1.41.03-.43.09-.95.15-1.55l2.76-.62c-.07.6-.13,1.14-.17,1.62-.05.48-.09,1.02-.12,1.61-.03.58-.05,1.16-.05,1.73h4.3l-.83,2.07Z"/>
    <path fill="#231f20" d="M149.59,133.86c-.13-.6-.32-1.1-.57-1.52-.3-.45-.72-.82-1.27-1.1-.55-.27-1.16-.41-1.83-.41-2.5,0-3.82,1.78-3.96,5.33h7.85c-.02-.94-.1-1.7-.23-2.3M141.97,138.23v.41c0,.8.06,1.51.17,2.13.12.62.32,1.16.62,1.62.48.73,1.1,1.27,1.85,1.6.75.33,1.56.5,2.44.5,1.63,0,3.04-.54,4.21-1.62l1.03,1.72c-.76.69-1.64,1.22-2.64,1.58-1,.37-2.05.55-3.16.55-2.39,0-4.26-.81-5.61-2.42-1.35-1.62-2.02-3.85-2.02-6.7,0-1.45.16-2.66.48-3.67.32-.99.85-1.93,1.59-2.8,1.36-1.58,3.08-2.38,5.16-2.38,1.91,0,3.47.62,4.67,1.86.37.39.68.79.93,1.2.25.41.46.89.6,1.45.15.55.26,1.2.33,1.93.07.74.1,1.62.1,2.65v.37h-10.77Z"/>
    <path fill="#231f20" d="M163.48,131.78c-.23-.09-.48-.13-.76-.13-1.08,0-2.03.41-2.86,1.23-.39.39-.65.76-.79,1.12-.14.35-.21.88-.21,1.59v10.7h-2.75v-13.16c0-1.26-.2-2.47-.59-3.64l2.74-.72s.08.16.18.4c.09.24.19.58.28,1.03.09.45.13.9.1,1.36.62-.88,1.36-1.57,2.22-2.08.86-.52,1.73-.78,2.6-.78.23,0,.54.06.93.17l-1.1,2.91Z"/>
    <path fill="#231f20" d="M176.94,146.28v-11.49c0-.46-.01-.83-.03-1.12-.02-.3-.06-.55-.1-.75-.05-.2-.11-.38-.19-.53-.08-.14-.18-.29-.29-.42-.41-.47-1.04-.71-1.89-.71-.35,0-.73.06-1.15.19-.42.12-.85.29-1.27.51-.42.21-.84.47-1.25.77-.41.3-.77.6-1.07.92v12.65h-2.58v-13.16c0-1.23-.22-2.43-.65-3.6l2.62-.72s.08.15.17.38c.09.23.19.56.29.98.1.42.15.86.15,1.32,1.77-1.76,3.57-2.65,5.4-2.65.94,0,1.79.22,2.55.68.76.45,1.31,1.06,1.65,1.82.28.62.41,1.28.41,1.99v12.96h-2.76Z"/>
    <path fill="#231f20" d="M192.35,137.59c-.21-.01-.44-.02-.69-.02-1.09,0-2.02.09-2.78.27-.76.18-1.38.45-1.84.78-.46.34-.8.77-1.01,1.28-.21.52-.31,1.09-.31,1.72,0,2.07,1,3.1,2.99,3.1.88,0,1.7-.24,2.47-.73.76-.49,1.34-1.13,1.74-1.92l.1-4.43c-.23-.02-.45-.04-.66-.05M195.53,147.01c-.59-.18-1.09-.5-1.49-.95-.4-.45-.68-.97-.84-1.56-.82.82-1.6,1.42-2.35,1.77-.74.36-1.6.53-2.58.53-1.05,0-1.93-.15-2.64-.45-.71-.3-1.27-.67-1.7-1.13-.42-.46-.72-.98-.89-1.57-.17-.59-.26-1.17-.26-1.74,0-1.95.79-3.46,2.38-4.54,1.58-1.08,3.82-1.62,6.71-1.62.37,0,.77,0,1.21.03v-1.2c0-.75-.03-1.31-.09-1.69-.06-.38-.21-.7-.47-.97-.28-.32-.6-.55-.97-.71-.37-.15-.82-.22-1.35-.22-.48,0-.99.05-1.52.16-.53.1-1.05.25-1.54.45-.5.19-.96.41-1.38.65-.43.24-.78.49-1.05.74l-1.34-1.93c2.29-1.53,4.69-2.31,7.18-2.31s4.01.89,4.74,2.68c.18.46.3,1.01.34,1.66.04.64.06,1.35.03,2.13l-.14,5.65c-.02.68-.02,1.26,0,1.72.02.46.08.84.19,1.16.1.31.25.56.43.77.18.2.44.39.76.55l-1.38,1.93Z"/>
    <path fill="#231f20" d="M207.16,131.24h-3.58v11.05c0,.96.15,1.63.46,1.99.31.37.89.55,1.74.55.39,0,.71-.03.94-.09.24-.06.49-.14.74-.26l.38,1.72c-.87.46-1.88.69-3.03.69-.46,0-.86-.04-1.21-.12-.35-.08-.68-.2-1-.36-.58-.3-.99-.73-1.24-1.27-.25-.55-.37-1.26-.37-2.14v-11.77h-2.24v-2.07h2.24c0-.41.01-.87.03-1.38.02-.51.05-.98.08-1.41.04-.43.08-.95.15-1.55l2.76-.62c-.07.6-.12,1.14-.17,1.62-.05.48-.09,1.02-.12,1.61-.04.58-.05,1.16-.05,1.73h4.3l-.82,2.07Z"/>
    <path fill="#231f20" d="M210.81,146.28v-17l2.75-.44v17.45h-2.75ZM214.31,123.91c0,.59-.2,1.09-.59,1.49-.4.4-.89.6-1.48.6s-1.08-.21-1.48-.6c-.4-.4-.59-.89-.59-1.46s.2-1.1.59-1.52c.4-.41.89-.61,1.48-.61s1.08.2,1.48.6c.39.4.59.9.59,1.5"/>
    <path fill="#231f20" d="M229.43,138.28c0-2.36-.27-4.08-.79-5.15-.37-.76-.89-1.31-1.56-1.66-.68-.36-1.37-.54-2.08-.54-.76,0-1.46.17-2.1.5-.64.33-1.11.78-1.41,1.36-.27.53-.48,1.15-.62,1.85-.14.72-.2,1.59-.2,2.61,0,1.21.1,2.32.29,3.31.2,1,.45,1.76.78,2.28.32.53.79.95,1.43,1.25.63.31,1.31.46,2.05.46.9,0,1.66-.22,2.31-.67.64-.44,1.11-1.08,1.41-1.91.18-.52.31-1.06.39-1.61.08-.55.12-1.25.12-2.1M232.53,138.06c0,1.42-.18,2.68-.55,3.77-.37,1.09-.88,2-1.53,2.74-.66.73-1.43,1.29-2.33,1.67-.9.38-1.89.57-2.97.57-2.37,0-4.2-.81-5.49-2.45-1.29-1.63-1.93-3.85-1.93-6.68s.65-5,1.95-6.59c1.3-1.6,3.09-2.39,5.37-2.39,1.45,0,2.64.29,3.59.87.94.57,1.71,1.28,2.31,2.13.53.78.92,1.68,1.19,2.71.27,1.03.4,2.25.4,3.65"/>
    <path fill="#231f20" d="M246.47,146.28v-11.49c0-.46-.01-.83-.04-1.12-.02-.3-.06-.55-.1-.75-.05-.2-.11-.38-.19-.53-.08-.14-.18-.29-.29-.42-.41-.47-1.05-.71-1.9-.71-.34,0-.73.06-1.15.19-.42.12-.85.29-1.27.51-.43.21-.84.47-1.26.77-.41.3-.77.6-1.06.92v12.65h-2.58v-13.16c0-1.23-.22-2.43-.65-3.6l2.61-.72s.08.15.17.38c.09.23.19.56.29.98.11.42.16.86.16,1.32,1.77-1.76,3.57-2.65,5.4-2.65.94,0,1.79.22,2.55.68.75.45,1.3,1.06,1.65,1.82.27.62.41,1.28.41,1.99v12.96h-2.75Z"/>
    <path fill="#231f20" d="M262.57,137.59c-.21-.01-.44-.02-.69-.02-1.09,0-2.01.09-2.78.27-.77.18-1.38.45-1.84.78-.46.34-.8.77-1.01,1.28-.21.52-.31,1.09-.31,1.72,0,2.07,1,3.1,2.99,3.1.88,0,1.71-.24,2.47-.73.76-.49,1.35-1.13,1.74-1.92l.1-4.43c-.23-.02-.45-.04-.66-.05M265.74,147.01c-.59-.18-1.09-.5-1.49-.95-.4-.45-.68-.97-.84-1.56-.82.82-1.61,1.42-2.35,1.77-.74.36-1.6.53-2.58.53-1.05,0-1.93-.15-2.64-.45-.71-.3-1.27-.67-1.69-1.13-.42-.46-.72-.98-.89-1.57-.17-.59-.26-1.17-.26-1.74,0-1.95.79-3.46,2.37-4.54,1.59-1.08,3.82-1.62,6.71-1.62.37,0,.77,0,1.2.03v-1.2c0-.75-.03-1.31-.08-1.69-.06-.38-.21-.7-.47-.97-.28-.32-.6-.55-.97-.71-.37-.15-.82-.22-1.35-.22-.49,0-.99.05-1.52.16-.53.1-1.04.25-1.54.45-.5.19-.96.41-1.39.65-.42.24-.78.49-1.05.74l-1.34-1.93c2.29-1.53,4.68-2.31,7.18-2.31s4,.89,4.74,2.68c.18.46.29,1.01.34,1.66.04.64.05,1.35.03,2.13l-.14,5.65c-.02.68-.02,1.26,0,1.72.03.46.09.84.19,1.16.1.31.25.56.43.77.18.2.44.39.75.55l-1.38,1.93Z"/>
    <path fill="#231f20" d="M274.98,146.63c-.21.05-.51.07-.87.07-.86,0-1.54-.24-2.06-.72-.28-.25-.49-.57-.63-.95-.14-.38-.21-.88-.21-1.5v-18.18c0-1.12-.14-2.3-.41-3.51l2.71-.52c.3,1.4.46,2.76.46,4.07v17.52c0,.67.06,1.12.19,1.37.12.24.38.36.77.36.05,0,.16-.02.34-.07l.55,1.75c-.34.16-.62.26-.84.31"/>
    <path fill="#231f20" d="M296.82,129.25c0-.78-.21-1.5-.65-2.17-.43-.67-.98-1.14-1.64-1.41-.39-.16-.82-.28-1.28-.36-.47-.08-1.02-.12-1.65-.12h-2.69v8.82h2.49c1.05,0,1.9-.1,2.56-.3.66-.2,1.21-.5,1.67-.91.39-.37.69-.85.89-1.46.2-.61.31-1.3.31-2.08M297.42,146.28c-.18-.38-.45-.89-.79-1.51-.34-.62-.77-1.33-1.28-2.11-.52-.78-1.1-1.63-1.77-2.55-.66-.92-1.38-1.87-2.16-2.87-.46-.57-.86-.95-1.21-1.16-.36-.2-.82-.32-1.39-.34v10.53h-2.82v-23.51h5.49c.8,0,1.51.04,2.13.11.62.07,1.16.17,1.63.31.46.14.88.3,1.24.48.35.18.67.39.94.62.27.21.55.47.83.78.27.31.52.67.74,1.09.21.41.4.88.55,1.4.15.52.22,1.09.22,1.71,0,.97-.15,1.85-.44,2.66-.3.8-.72,1.49-1.27,2.05-.55.56-1.21,1-1.97,1.31-.77.31-1.62.46-2.56.46h-.34c.55.45,1.01.93,1.41,1.42.39.49.71.9.96,1.22.2.27.53.72.96,1.35.44.63.9,1.3,1.39,2.04.49.73.98,1.45,1.46,2.17.48.72.86,1.28,1.15,1.71.29.42.44.63.46.63h-3.54Z"/>
    <path fill="#231f20" d="M313.26,133.86c-.12-.6-.32-1.1-.57-1.52-.3-.45-.73-.82-1.27-1.1-.55-.27-1.16-.41-1.82-.41-2.5,0-3.82,1.78-3.96,5.33h7.85c-.03-.94-.1-1.7-.23-2.3M305.64,138.23v.41c0,.8.06,1.51.17,2.13.12.62.32,1.16.62,1.62.48.73,1.1,1.27,1.85,1.6.75.33,1.56.5,2.43.5,1.63,0,3.04-.54,4.21-1.62l1.04,1.72c-.76.69-1.64,1.22-2.64,1.58-1,.37-2.06.55-3.16.55-2.39,0-4.26-.81-5.61-2.42-1.34-1.62-2.02-3.85-2.02-6.7,0-1.45.16-2.66.49-3.67.32-.99.85-1.93,1.59-2.8,1.36-1.58,3.08-2.38,5.15-2.38,1.91,0,3.47.62,4.67,1.86.37.39.68.79.93,1.2.25.41.45.89.6,1.45.15.55.26,1.2.33,1.93.07.74.1,1.62.1,2.65v.37h-10.78Z"/>
    <path fill="#231f20" d="M330.28,146.28v-11.79c0-.63-.04-1.16-.14-1.55-.09-.4-.26-.73-.51-.98-.2-.2-.48-.37-.82-.5-.35-.13-.73-.19-1.16-.19-.82,0-1.67.25-2.54.75-.87.5-1.68,1.21-2.4,2.12v12.13h-2.75v-21.06c0-1.12-.15-2.3-.45-3.51l2.74-.51c.31,1.4.46,2.76.46,4.06v3.99c0,.55-.04,1.33-.1,2.33.77-.73,1.63-1.37,2.58-1.9.95-.54,1.97-.8,3.06-.8,1.02,0,1.93.25,2.75.75.82.5,1.35,1.16,1.6,1.95.11.35.18.69.22,1.03.04.34.05.82.05,1.44v12.24h-2.58Z"/>
    <path fill="#231f20" d="M346.28,137.59c-.21-.01-.44-.02-.69-.02-1.09,0-2.02.09-2.78.27-.77.18-1.38.45-1.85.78-.46.34-.8.77-1,1.28-.22.52-.32,1.09-.32,1.72,0,2.07,1,3.1,2.99,3.1.88,0,1.71-.24,2.47-.73.77-.49,1.35-1.13,1.74-1.92l.1-4.43c-.23-.02-.45-.04-.66-.05M349.45,147.01c-.59-.18-1.09-.5-1.49-.95-.4-.45-.68-.97-.84-1.56-.82.82-1.6,1.42-2.34,1.77-.74.36-1.61.53-2.59.53-1.05,0-1.93-.15-2.64-.45-.71-.3-1.27-.67-1.69-1.13-.42-.46-.72-.98-.89-1.57-.17-.59-.25-1.17-.25-1.74,0-1.95.79-3.46,2.38-4.54,1.58-1.08,3.82-1.62,6.71-1.62.37,0,.77,0,1.2.03v-1.2c0-.75-.03-1.31-.08-1.69-.06-.38-.21-.7-.47-.97-.28-.32-.6-.55-.97-.71-.37-.15-.82-.22-1.35-.22-.49,0-.99.05-1.52.16-.53.1-1.05.25-1.54.45-.5.19-.96.41-1.39.65-.42.24-.78.49-1.05.74l-1.34-1.93c2.29-1.53,4.68-2.31,7.18-2.31s4,.89,4.74,2.68c.18.46.29,1.01.34,1.66.04.64.05,1.35.03,2.13l-.14,5.65c-.02.68-.02,1.26,0,1.72.03.46.09.84.19,1.16.11.31.25.56.43.77.18.2.44.39.76.55l-1.38,1.93Z"/>
    <path fill="#231f20" d="M366.11,137.34c0-1.15-.08-2.08-.22-2.79-.15-.71-.4-1.32-.77-1.83-.32-.45-.77-.82-1.35-1.08-.58-.27-1.2-.4-1.86-.4-.84,0-1.65.21-2.42.64-.78.42-1.39.96-1.84,1.6v8.81c.45.6,1.07,1.08,1.84,1.48.77.39,1.56.58,2.36.58.59,0,1.17-.14,1.74-.41.57-.27,1.01-.64,1.33-1.1.32-.45.59-1.13.83-2.01.24-.89.36-2.05.36-3.49M369.04,137.54c0,1.38-.16,2.63-.48,3.76-.32,1.14-.78,2.11-1.37,2.91-.59.81-1.31,1.43-2.14,1.88-.83.45-1.76.67-2.79.67-.89,0-1.78-.23-2.65-.69-.88-.46-1.56-1.01-2.04-1.65-.05.37-.09.68-.14.95-.04.26-.16.56-.34.91h-2.68c.18-.41.31-.93.4-1.56.08-.62.12-1.52.12-2.69v-16.81c0-1.12-.15-2.3-.45-3.51l2.74-.51c.3,1.4.46,2.75.46,4.06v3.99c0,.43-.02,1.06-.07,1.89.84-.82,1.64-1.41,2.38-1.76.75-.35,1.58-.53,2.48-.53,1.02,0,1.93.2,2.74.6.81.4,1.49.98,2.06,1.73.57.76,1,1.68,1.31,2.76.31,1.08.46,2.29.46,3.62"/>
    <path fill="#231f20" d="M373.24,146.28v-17l2.76-.44v17.45h-2.76ZM376.74,123.91c0,.59-.2,1.09-.6,1.49-.4.4-.89.6-1.48.6s-1.08-.21-1.48-.6c-.4-.4-.59-.89-.59-1.46s.19-1.1.59-1.52c.4-.41.89-.61,1.48-.61s1.08.2,1.48.6c.4.4.6.9.6,1.5"/>
    <path fill="#231f20" d="M384.96,146.63c-.21.05-.51.07-.87.07-.86,0-1.55-.24-2.06-.72-.28-.25-.49-.57-.63-.95-.14-.38-.21-.88-.21-1.5v-18.18c0-1.12-.14-2.3-.41-3.51l2.71-.52c.3,1.4.46,2.76.46,4.07v17.52c0,.67.06,1.12.19,1.37.12.24.38.36.77.36.05,0,.16-.02.34-.07l.55,1.75c-.34.16-.62.26-.84.31"/>
    <path fill="#231f20" d="M389.24,146.28v-17l2.75-.44v17.45h-2.75ZM392.74,123.91c0,.59-.2,1.09-.59,1.49-.4.4-.89.6-1.48.6s-1.08-.21-1.48-.6c-.4-.4-.6-.89-.6-1.46s.2-1.1.6-1.52c.4-.41.89-.61,1.48-.61s1.08.2,1.48.6c.4.4.59.9.59,1.5"/>
    <path fill="#231f20" d="M403.53,131.24h-3.58v11.05c0,.96.16,1.63.47,1.99.31.37.89.55,1.74.55.39,0,.71-.03.95-.09.24-.06.49-.14.74-.26l.38,1.72c-.88.46-1.88.69-3.03.69-.46,0-.87-.04-1.22-.12-.35-.08-.68-.2-1-.36-.58-.3-1-.73-1.24-1.27-.25-.55-.37-1.26-.37-2.14v-11.77h-2.24v-2.07h2.24c0-.41,0-.87.03-1.38.02-.51.05-.98.08-1.41.03-.43.08-.95.15-1.55l2.76-.62c-.07.6-.12,1.14-.17,1.62-.05.48-.09,1.02-.12,1.61-.03.58-.05,1.16-.05,1.73h4.3l-.83,2.07Z"/>
    <path fill="#231f20" d="M415.19,137.59c-.21-.01-.44-.02-.69-.02-1.09,0-2.02.09-2.78.27-.76.18-1.38.45-1.84.78-.46.34-.8.77-1,1.28-.21.52-.31,1.09-.31,1.72,0,2.07,1,3.1,2.99,3.1.89,0,1.71-.24,2.47-.73.77-.49,1.34-1.13,1.74-1.92l.1-4.43c-.23-.02-.45-.04-.66-.05M418.36,147.01c-.59-.18-1.09-.5-1.49-.95-.4-.45-.68-.97-.84-1.56-.82.82-1.61,1.42-2.35,1.77-.74.36-1.6.53-2.58.53-1.05,0-1.93-.15-2.64-.45-.71-.3-1.27-.67-1.69-1.13-.42-.46-.72-.98-.89-1.57-.17-.59-.26-1.17-.26-1.74,0-1.95.79-3.46,2.37-4.54,1.59-1.08,3.83-1.62,6.71-1.62.37,0,.77,0,1.2.03v-1.2c0-.75-.03-1.31-.08-1.69-.06-.38-.22-.7-.47-.97-.28-.32-.6-.55-.97-.71-.37-.15-.82-.22-1.35-.22-.49,0-.99.05-1.52.16-.53.1-1.04.25-1.54.45-.5.19-.96.41-1.38.65-.42.24-.78.49-1.05.74l-1.35-1.93c2.29-1.53,4.68-2.31,7.19-2.31s4,.89,4.74,2.68c.18.46.29,1.01.34,1.66.04.64.05,1.35.03,2.13l-.14,5.65c-.02.68-.02,1.26,0,1.72.03.46.09.84.19,1.16.11.31.25.56.43.77.18.2.44.39.76.55l-1.38,1.93Z"/>
    <path fill="#231f20" d="M430,131.24h-3.58v11.05c0,.96.15,1.63.46,1.99.31.37.89.55,1.74.55.39,0,.71-.03.95-.09.24-.06.49-.14.74-.26l.38,1.72c-.87.46-1.88.69-3.03.69-.46,0-.86-.04-1.22-.12-.35-.08-.68-.2-.99-.36-.58-.3-1-.73-1.24-1.27-.25-.55-.37-1.26-.37-2.14v-11.77h-2.24v-2.07h2.24c0-.41.01-.87.03-1.38.02-.51.05-.98.08-1.41.04-.43.08-.95.15-1.55l2.76-.62c-.07.6-.12,1.14-.17,1.62-.05.48-.09,1.02-.12,1.61-.03.58-.05,1.16-.05,1.73h4.3l-.83,2.07Z"/>
    <path fill="#231f20" d="M433.65,146.28v-17l2.76-.44v17.45h-2.76ZM437.15,123.91c0,.59-.2,1.09-.59,1.49-.4.4-.89.6-1.48.6s-1.08-.21-1.48-.6c-.4-.4-.59-.89-.59-1.46s.19-1.1.59-1.52c.4-.41.89-.61,1.48-.61s1.08.2,1.48.6c.4.4.59.9.59,1.5"/>
    <path fill="#231f20" d="M452.26,138.28c0-2.36-.26-4.08-.79-5.15-.37-.76-.89-1.31-1.57-1.66-.67-.36-1.37-.54-2.08-.54-.76,0-1.46.17-2.1.5-.64.33-1.11.78-1.41,1.36-.28.53-.48,1.15-.62,1.85-.14.72-.2,1.59-.2,2.61,0,1.21.09,2.32.29,3.31.19,1,.45,1.76.77,2.28.32.53.79.95,1.42,1.25.63.31,1.31.46,2.05.46.89,0,1.66-.22,2.31-.67.64-.44,1.12-1.08,1.41-1.91.18-.52.31-1.06.39-1.61.08-.55.12-1.25.12-2.1M455.36,138.06c0,1.42-.18,2.68-.55,3.77-.37,1.09-.88,2-1.53,2.74-.66.73-1.43,1.29-2.33,1.67-.9.38-1.89.57-2.97.57-2.37,0-4.2-.81-5.49-2.45-1.29-1.63-1.93-3.85-1.93-6.68s.65-5,1.95-6.59c1.29-1.6,3.08-2.39,5.37-2.39,1.45,0,2.64.29,3.58.87.94.57,1.71,1.28,2.31,2.13.53.78.93,1.68,1.19,2.71.27,1.03.4,2.25.4,3.65"/>
    <path fill="#231f20" d="M469.31,146.28v-11.49c0-.46-.02-.83-.04-1.12-.02-.3-.06-.55-.1-.75-.05-.2-.11-.38-.19-.53-.08-.14-.18-.29-.29-.42-.41-.47-1.05-.71-1.89-.71-.34,0-.73.06-1.15.19-.42.12-.85.29-1.27.51-.43.21-.84.47-1.26.77-.41.3-.77.6-1.06.92v12.65h-2.58v-13.16c0-1.23-.22-2.43-.65-3.6l2.61-.72s.08.15.17.38c.09.23.19.56.29.98.1.42.16.86.16,1.32,1.76-1.76,3.57-2.65,5.4-2.65.94,0,1.79.22,2.55.68.76.45,1.31,1.06,1.65,1.82.28.62.41,1.28.41,1.99v12.96h-2.75Z"/>
    <path fill="#231f20" d="M116.39,183.39c-1.12.32-2.27.49-3.44.49-1.28,0-2.52-.27-3.72-.79-1.19-.53-2.25-1.31-3.17-2.34-1.02-1.15-1.75-2.49-2.19-4.02-.44-1.54-.66-3.19-.66-4.95s.25-3.37.75-4.86c.5-1.49,1.19-2.78,2.08-3.87.89-1.09,1.94-1.94,3.16-2.55,1.21-.6,2.53-.91,3.96-.91,1.15,0,2.23.17,3.24.5,1.01.33,1.92.8,2.72,1.41l-1.52,1.82c-.71-.53-1.41-.91-2.11-1.14-.7-.23-1.49-.34-2.36-.34-1.38,0-2.55.34-3.51,1.03-.96.69-1.73,1.71-2.31,3.04-.34.81-.6,1.71-.76,2.7-.16.99-.24,2.19-.24,3.6,0,1.15.06,2.1.17,2.85.12.75.31,1.47.58,2.16.6,1.5,1.46,2.61,2.6,3.34,1.14.73,2.38,1.09,3.73,1.09.87,0,1.67-.12,2.39-.36.72-.24,1.46-.62,2.22-1.16l1.51,1.89c-.96.6-2.01,1.06-3.13,1.39"/>
    <path fill="#231f20" d="M132.05,175.42c0-2.36-.26-4.08-.79-5.15-.37-.76-.89-1.31-1.57-1.67-.68-.35-1.37-.53-2.08-.53-.76,0-1.46.17-2.1.5-.64.33-1.11.79-1.41,1.36-.27.52-.48,1.15-.62,1.85-.14.71-.2,1.58-.2,2.61,0,1.21.1,2.32.29,3.31.19.99.45,1.75.77,2.28.32.53.8.94,1.43,1.25.63.31,1.31.47,2.05.47.89,0,1.66-.23,2.31-.67.64-.45,1.11-1.07,1.41-1.9.18-.53.31-1.06.39-1.62.08-.55.12-1.24.12-2.09M135.15,175.2c0,1.42-.18,2.67-.55,3.76-.37,1.09-.88,2-1.53,2.74-.65.73-1.43,1.29-2.33,1.67-.9.38-1.89.57-2.97.57-2.37,0-4.2-.81-5.49-2.44-1.29-1.63-1.93-3.86-1.93-6.68s.65-5,1.95-6.59c1.3-1.59,3.09-2.39,5.36-2.39,1.45,0,2.64.29,3.59.86.94.57,1.71,1.29,2.31,2.14.53.78.93,1.68,1.19,2.72.27,1.03.4,2.25.4,3.65"/>
    <path fill="#231f20" d="M150.75,184.22c-.57-.46-.99-.89-1.27-1.3-.27-.4-.47-.89-.58-1.46-1.3,1.75-3.11,2.62-5.41,2.62-1.1,0-2.03-.22-2.79-.66-.76-.44-1.33-1.03-1.69-1.79-.16-.32-.27-.7-.34-1.14-.07-.44-.1-.91-.1-1.42v-12.62l2.58-.52v12.4c0,.81.07,1.43.23,1.85.15.43.42.78.82,1.06.28.19.6.33.97.43.37.11.75.15,1.15.15.86,0,1.69-.28,2.5-.85.81-.57,1.45-1.33,1.91-2.28v-12.26l2.58-.45v12.54c0,1.08.09,1.9.26,2.43.17.54.48,1.01.91,1.4l-1.72,1.83Z"/>
    <path fill="#231f20" d="M166.2,183.43v-11.5c0-.46-.01-.83-.03-1.12-.02-.3-.06-.55-.1-.75-.04-.2-.11-.38-.19-.53-.08-.15-.18-.29-.29-.42-.41-.48-1.04-.72-1.9-.72-.34,0-.73.06-1.15.19-.42.12-.85.29-1.27.51-.42.21-.84.47-1.25.76-.41.3-.77.6-1.07.93v12.65h-2.58v-13.17c0-1.23-.22-2.43-.65-3.6l2.62-.71s.08.15.17.37c.09.23.19.56.29.99.1.42.15.86.15,1.33,1.77-1.76,3.57-2.65,5.4-2.65.94,0,1.79.22,2.55.68.76.46,1.31,1.07,1.65,1.82.28.62.41,1.28.41,1.99v12.96h-2.76Z"/>
    <path fill="#231f20" d="M182.48,183.36c-.8.34-1.75.52-2.82.52-2.46,0-4.28-.86-5.46-2.58-.56-.83-.98-1.73-1.24-2.71-.26-.97-.39-2.1-.39-3.38,0-1.88.24-3.38.73-4.51.49-1.12,1.09-2.06,1.82-2.79,1.33-1.33,2.87-1.99,4.64-1.99,1.08,0,1.97.19,2.68.57.71.38,1.38.83,2,1.34l-1.48,1.88c-.6-.51-1.12-.86-1.58-1.07-.46-.21-1.02-.31-1.69-.31s-1.29.17-1.88.52c-.58.35-1.04.82-1.36,1.41-.64,1.2-.96,3.06-.96,5.61,0,1.95.36,3.43,1.08,4.44.72,1.01,1.77,1.52,3.15,1.52s2.65-.62,3.68-1.86l1.48,1.72c-.8.78-1.61,1.34-2.41,1.69"/>
    <path fill="#231f20" d="M188.2,183.43v-17l2.75-.45v17.45h-2.75ZM191.7,161.05c0,.6-.2,1.1-.59,1.49-.39.4-.89.61-1.48.61s-1.08-.21-1.48-.61c-.4-.39-.6-.89-.6-1.46s.2-1.1.6-1.52c.39-.41.89-.61,1.48-.61s1.08.2,1.48.6c.39.4.59.9.59,1.5"/>
    <path fill="#231f20" d="M199.91,183.78c-.22.04-.51.07-.88.07-.86,0-1.55-.25-2.06-.72-.28-.26-.49-.57-.63-.95-.14-.38-.21-.88-.21-1.5v-18.17c0-1.12-.14-2.3-.41-3.51l2.72-.52c.3,1.4.46,2.76.46,4.07v17.51c0,.67.06,1.12.19,1.37.12.24.38.36.77.36.05,0,.16-.02.34-.07l.55,1.75c-.34.16-.63.26-.84.31"/>
    <path fill="#231f20" d="M218.55,161.47c-.32-.19-.71-.36-1.17-.54-.46-.17-.91-.26-1.38-.26-1.56,0-2.34,1-2.34,3.01v2.63h4.75l-.82,2.07h-3.93v15.04h-2.75v-15.04h-1.65v-2.07h1.65v-2.66c0-.63.06-1.18.18-1.64.13-.46.28-.84.47-1.18.19-.33.39-.6.6-.82.21-.21.41-.39.59-.53.79-.59,1.79-.88,3.01-.88,1.51,0,2.78.33,3.79.98l-1,1.88Z"/>
    <path fill="#231f20" d="M230.29,175.42c0-2.36-.26-4.08-.79-5.15-.37-.76-.89-1.31-1.57-1.67-.68-.35-1.37-.53-2.08-.53-.76,0-1.46.17-2.1.5-.64.33-1.11.79-1.41,1.36-.28.52-.48,1.15-.62,1.85-.14.71-.2,1.58-.2,2.61,0,1.21.1,2.32.29,3.31.19.99.45,1.75.78,2.28.32.53.8.94,1.43,1.25.63.31,1.31.47,2.05.47.9,0,1.66-.23,2.31-.67.64-.45,1.11-1.07,1.41-1.9.18-.53.31-1.06.4-1.62.08-.55.12-1.24.12-2.09M233.39,175.2c0,1.42-.18,2.67-.55,3.76-.37,1.09-.88,2-1.53,2.74-.66.73-1.43,1.29-2.33,1.67-.9.38-1.89.57-2.97.57-2.37,0-4.2-.81-5.49-2.44-1.29-1.63-1.93-3.86-1.93-6.68s.65-5,1.95-6.59c1.3-1.59,3.09-2.39,5.37-2.39,1.45,0,2.64.29,3.59.86.94.57,1.71,1.29,2.31,2.14.53.78.92,1.68,1.19,2.72.27,1.03.4,2.25.4,3.65"/>
    <path fill="#231f20" d="M243.82,168.92c-.23-.09-.49-.14-.76-.14-1.08,0-2.03.41-2.86,1.24-.39.39-.65.76-.79,1.11-.14.35-.21.89-.21,1.59v10.7h-2.75v-13.16c0-1.26-.2-2.47-.59-3.64l2.74-.72s.08.15.18.39c.09.25.19.59.28,1.03.1.45.13.91.11,1.36.62-.88,1.36-1.57,2.22-2.08.86-.52,1.73-.77,2.6-.77.23,0,.54.06.93.17l-1.1,2.91Z"/>
  </g>
  <polygon fill="#231f20" points="250.36 159.92 250.36 162.33 256.69 162.33 256.69 183.43 259.44 183.43 259.44 162.33 265.85 162.33 266.02 159.92 250.36 159.92"/>
  <g>
    <path fill="#231f20" d="M275.96,175.42c0-2.36-.26-4.08-.79-5.15-.37-.76-.88-1.31-1.56-1.67-.68-.35-1.37-.53-2.08-.53-.76,0-1.46.17-2.1.5-.65.33-1.11.79-1.41,1.36-.27.52-.48,1.15-.62,1.85-.14.71-.21,1.58-.21,2.61,0,1.21.1,2.32.29,3.31.19.99.45,1.75.77,2.28.32.53.8.94,1.42,1.25.63.31,1.31.47,2.05.47.89,0,1.66-.23,2.31-.67.64-.45,1.11-1.07,1.41-1.9.18-.53.31-1.06.4-1.62.08-.55.12-1.24.12-2.09M279.06,175.2c0,1.42-.18,2.67-.55,3.76-.37,1.09-.88,2-1.54,2.74-.66.73-1.43,1.29-2.33,1.67-.9.38-1.89.57-2.97.57-2.37,0-4.19-.81-5.48-2.44-1.29-1.63-1.93-3.86-1.93-6.68s.65-5,1.95-6.59c1.3-1.59,3.09-2.39,5.37-2.39,1.45,0,2.65.29,3.59.86.94.57,1.71,1.29,2.31,2.14.53.78.92,1.68,1.19,2.72.27,1.03.4,2.25.4,3.65"/>
    <path fill="#231f20" d="M289.15,168.92c-.23-.09-.48-.14-.76-.14-1.08,0-2.03.41-2.86,1.24-.39.39-.66.76-.79,1.11-.14.35-.2.89-.2,1.59v10.7h-2.75v-13.16c0-1.26-.2-2.47-.59-3.64l2.74-.72s.08.15.18.39c.09.25.19.59.28,1.03.1.45.13.91.11,1.36.62-.88,1.36-1.57,2.22-2.08.86-.52,1.73-.77,2.6-.77.23,0,.54.06.93.17l-1.1,2.91Z"/>
    <path fill="#231f20" d="M299.61,168.39h-3.58v11.05c0,.97.15,1.63.47,1.99.31.37.89.55,1.74.55.39,0,.71-.03.94-.08.25-.06.49-.14.75-.26l.38,1.72c-.87.46-1.88.69-3.03.69-.46,0-.87-.04-1.22-.12-.35-.08-.68-.21-.99-.36-.58-.3-1-.73-1.24-1.27-.25-.55-.37-1.26-.37-2.13v-11.77h-2.24v-2.07h2.24c0-.41.02-.87.03-1.38.03-.51.06-.98.09-1.41.04-.44.08-.96.15-1.55l2.76-.62c-.07.6-.13,1.14-.17,1.62-.05.48-.09,1.01-.12,1.6-.03.58-.05,1.17-.05,1.74h4.3l-.82,2.07Z"/>
    <path fill="#231f20" d="M314.93,184.22c-.57-.46-1-.89-1.27-1.3-.27-.4-.47-.89-.58-1.46-1.3,1.75-3.1,2.62-5.41,2.62-1.1,0-2.03-.22-2.79-.66-.76-.44-1.33-1.03-1.69-1.79-.16-.32-.28-.7-.34-1.14-.07-.44-.1-.91-.1-1.42v-12.62l2.58-.52v12.4c0,.81.07,1.43.22,1.85.15.43.42.78.82,1.06.28.19.6.33.97.43.37.11.75.15,1.15.15.86,0,1.69-.28,2.5-.85.8-.57,1.45-1.33,1.91-2.28v-12.26l2.58-.45v12.54c0,1.08.09,1.9.26,2.43.17.54.48,1.01.92,1.4l-1.72,1.83Z"/>
    <path fill="#231f20" d="M328.25,168.92c-.23-.09-.48-.14-.76-.14-1.08,0-2.03.41-2.86,1.24-.39.39-.65.76-.79,1.11-.14.35-.21.89-.21,1.59v10.7h-2.75v-13.16c0-1.26-.19-2.47-.59-3.64l2.74-.72s.08.15.18.39c.09.25.19.59.28,1.03.1.45.13.91.1,1.36.62-.88,1.37-1.57,2.22-2.08.86-.52,1.72-.77,2.6-.77.23,0,.54.06.93.17l-1.1,2.91Z"/>
    <path fill="#231f20" d="M340.01,171c-.13-.6-.32-1.1-.57-1.52-.3-.46-.72-.82-1.28-1.1-.55-.28-1.16-.41-1.82-.41-2.5,0-3.82,1.78-3.96,5.33h7.84c-.02-.94-.1-1.71-.22-2.3M332.38,175.37v.42c0,.8.05,1.51.17,2.13.12.62.32,1.16.62,1.62.48.73,1.1,1.26,1.85,1.6.75.34,1.56.5,2.44.5,1.63,0,3.04-.54,4.21-1.62l1.03,1.72c-.76.69-1.64,1.22-2.64,1.59-1,.37-2.06.55-3.16.55-2.39,0-4.26-.81-5.61-2.43-1.35-1.62-2.02-3.85-2.02-6.69,0-1.45.16-2.67.49-3.67.32-1,.85-1.93,1.59-2.8,1.36-1.59,3.08-2.38,5.15-2.38,1.91,0,3.47.62,4.67,1.86.37.39.68.79.93,1.2.25.41.46.9.61,1.45.15.55.26,1.19.33,1.92.07.74.1,1.62.1,2.65v.38h-10.77Z"/>
    <path fill="#231f20" d="M361.4,183.43h-2.79l-7.95-23.51h3.06l4.99,15.21c.16.53.32,1.06.48,1.6.16.54.3,1.05.43,1.55.12.49.23.92.31,1.31.08.38.13.65.16.81.07-.3.23-.87.46-1.72.24-.85.57-1.91.98-3.2l5.06-15.56h2.89l-8.09,23.51Z"/>
    <path fill="#231f20" d="M371.55,183.43v-17l2.75-.45v17.45h-2.75ZM375.05,161.05c0,.6-.2,1.1-.59,1.49-.4.4-.89.61-1.48.61s-1.08-.21-1.48-.61c-.4-.39-.6-.89-.6-1.46s.2-1.1.6-1.52c.4-.41.89-.61,1.48-.61s1.08.2,1.48.6c.4.4.59.9.59,1.5"/>
    <path fill="#231f20" d="M388.55,183.36c-.8.34-1.74.52-2.82.52-2.46,0-4.27-.86-5.46-2.58-.57-.83-.98-1.73-1.24-2.71-.26-.97-.39-2.1-.39-3.38,0-1.88.24-3.38.73-4.51.49-1.12,1.09-2.06,1.82-2.79,1.33-1.33,2.87-1.99,4.64-1.99,1.08,0,1.97.19,2.69.57.71.38,1.37.83,1.99,1.34l-1.48,1.88c-.59-.51-1.13-.86-1.58-1.07-.46-.21-1.02-.31-1.69-.31s-1.29.17-1.87.52c-.59.35-1.04.82-1.36,1.41-.64,1.2-.96,3.06-.96,5.61,0,1.95.36,3.43,1.08,4.44.72,1.01,1.77,1.52,3.15,1.52s2.65-.62,3.68-1.86l1.48,1.72c-.81.78-1.61,1.34-2.41,1.69"/>
    <path fill="#231f20" d="M400.77,168.39h-3.58v11.05c0,.97.16,1.63.47,1.99.31.37.89.55,1.74.55.39,0,.71-.03.95-.08.24-.06.49-.14.74-.26l.38,1.72c-.87.46-1.88.69-3.02.69-.46,0-.87-.04-1.22-.12-.35-.08-.68-.21-.99-.36-.58-.3-1-.73-1.24-1.27-.25-.55-.37-1.26-.37-2.13v-11.77h-2.24v-2.07h2.24c0-.41.01-.87.03-1.38.02-.51.05-.98.08-1.41.03-.44.08-.96.15-1.55l2.76-.62c-.07.6-.12,1.14-.17,1.62-.05.48-.09,1.01-.12,1.6-.03.58-.05,1.17-.05,1.74h4.3l-.83,2.07Z"/>
    <path fill="#231f20" d="M404.42,183.43v-17l2.75-.45v17.45h-2.75ZM407.92,161.05c0,.6-.2,1.1-.59,1.49-.4.4-.89.61-1.48.61s-1.08-.21-1.48-.61c-.4-.39-.59-.89-.59-1.46s.19-1.1.59-1.52c.4-.41.89-.61,1.48-.61s1.08.2,1.48.6c.39.4.59.9.59,1.5"/>
    <path fill="#231f20" d="M431.24,183.43v-12.61c0-1.66-.74-2.5-2.21-2.5-.78,0-1.51.24-2.18.71-.68.46-1.46,1.11-2.36,1.93v12.47h-2.75v-12.13c0-.52-.03-.96-.1-1.3-.07-.34-.2-.64-.38-.89-.39-.46-.98-.69-1.75-.69-.67,0-1.34.18-2.02.53-.67.35-1.46.94-2.36,1.73v12.74h-2.58v-13.23c0-1.23-.21-2.44-.62-3.64l2.62-.61s.08.15.17.37c.09.23.19.55.3.96.1.41.15.81.15,1.2.28-.32.61-.63,1-.95.39-.31.81-.58,1.26-.82.45-.24.91-.43,1.38-.58.47-.15.92-.22,1.36-.22.85,0,1.65.25,2.4.74.74.5,1.28,1.2,1.6,2.11.82-.87,1.73-1.57,2.72-2.08.99-.51,1.92-.77,2.79-.77,1.29,0,2.33.43,3.12,1.29.79.85,1.19,1.97,1.19,3.34v12.89h-2.75Z"/>
    <path fill="#231f20" d="M450.61,178.41c0,.82-.15,1.58-.46,2.27-.31.68-.75,1.28-1.32,1.77-.57.49-1.25.88-2.04,1.16-.79.28-1.66.41-2.62.41-1.1,0-2.2-.15-3.31-.45-1.11-.3-2.1-.72-2.97-1.24l1.03-1.99c1.77,1.08,3.58,1.62,5.44,1.62,1.05,0,1.9-.27,2.53-.8.63-.53.94-1.26.94-2.18,0-.78-.22-1.41-.67-1.85-.45-.45-1.17-.78-2.15-.99l-2.13-.45c-1.42-.3-2.5-.86-3.24-1.69-.73-.83-1.1-1.84-1.1-3.03,0-.78.15-1.49.45-2.14.3-.64.72-1.19,1.25-1.65.54-.46,1.18-.82,1.92-1.08.75-.26,1.56-.4,2.45-.4s1.8.13,2.73.37c.93.25,1.76.57,2.49.97l-1,1.97c-.76-.37-1.47-.67-2.15-.89-.68-.23-1.4-.34-2.15-.34-.99,0-1.77.26-2.36.78-.59.52-.88,1.22-.88,2.08,0,.68.18,1.21.55,1.62.36.41,1,.71,1.92.89l2.26.48c3.04.64,4.56,2.24,4.56,4.79"/>
  </g>
</svg>