<?xml version="1.0" encoding="UTF-8"?>
<svg id="Layer_1" xmlns="http://www.w3.org/2000/svg" version="1.1" viewBox="0 0 327.1 122">
  <!-- Generator: Adobe Illustrator 30.5.1, SVG Export Plug-In . SVG Version: 2.1.4 Build 3)  -->
  <g id="Group_3">
    <circle id="Ellipse_1" fill="#0a9ab3" cx="61" cy="61" r="61"/>
    <path id="omega-logo" fill="#15181f" d="M76.6,86.3c13.6-8.6,16.6-21,14.2-34-2.7-14.5-13.4-23.3-29.3-23.3s-26.6,8.8-29.3,23.3c-2.4,13,.5,25.4,14.2,34h-15.4v7.5h25v-7.5c-8.7-3.9-17.7-15.8-15.7-30.3s11-19.6,21.2-19.6,19.2,5.1,21.2,19.6-7,26.4-15.7,30.3v7.5h25v-7.5h-15.4Z"/>
  </g>
  <g style="isolation:isolate">
    <path fill="#0a9ab3" d="M150.7,35.4c-3.8,0-6.6-1-8.6-2.9-2-1.9-3-4.9-3-9s1-7.4,3-9.3c2-1.9,4.8-2.8,8.6-2.8s6.6.9,8.6,2.8,3,5,3,9.3-1,7-3,9c-2,1.9-4.9,2.9-8.6,2.9ZM150.7,30.4c1.9,0,3.4-.6,4.3-1.7s1.4-2.9,1.4-5.2c0-2.6-.5-4.4-1.4-5.5s-2.3-1.6-4.3-1.6-3.4.5-4.3,1.6c-.9,1.1-1.4,2.9-1.4,5.5,0,2.4.5,4.1,1.4,5.2s2.3,1.7,4.3,1.7Z"/>
    <path fill="#0a9ab3" d="M165.2,35v-17.1h5.4l.2,1.5c.8-.6,1.6-1,2.6-1.4,1-.3,2-.5,3.1-.5,1.2,0,2.1.2,2.7.5.6.3,1.2.8,1.5,1.5.8-.6,1.7-1,2.7-1.4s2.2-.6,3.5-.6c2,0,3.5.5,4.4,1.5s1.4,2.6,1.4,4.7v11.3h-5.7v-10.5c0-.9-.2-1.6-.6-2-.4-.4-1-.6-1.9-.6-.6,0-1.1.1-1.6.3-.5.2-1,.5-1.3,1,0,.3.1.5.1.8v11h-5.4v-10.5c0-.9-.1-1.5-.4-1.9-.3-.4-.9-.6-1.7-.6-.6,0-1.2.2-1.7.5s-1,.7-1.4,1.1v11.4h-5.9Z"/>
    <path fill="#0a9ab3" d="M205,35.4c-3,0-5.4-.7-7.2-2.2s-2.7-3.7-2.7-6.7c0-2.7.7-4.9,2.2-6.5s3.7-2.4,6.7-2.4c2.7,0,4.8.7,6.3,2.1s2.2,3.3,2.2,5.6v3.1h-12.1c.3,1.1.9,1.9,1.9,2.4,1,.4,2.3.7,4,.7.9,0,1.9-.1,2.9-.3s1.8-.4,2.4-.6v3.8c-.8.4-1.8.7-2.9.8s-2.3.2-3.7.2ZM200.5,25h7.1v-.8c0-.8-.3-1.5-.8-2s-1.4-.7-2.6-.7c-1.4,0-2.4.3-2.9.8-.5.6-.8,1.5-.8,2.7Z"/>
    <path fill="#0a9ab3" d="M222.9,41.3c-.8,0-1.7,0-2.7-.1-.9-.1-1.8-.2-2.7-.3-.8-.1-1.6-.3-2.2-.5v-4c1,.3,2.1.6,3.5.7,1.3.2,2.6.3,3.7.3,1.5,0,2.6-.1,3.3-.2.7-.2,1.1-.4,1.1-.8,0-.3-.1-.6-.4-.7s-.9-.2-1.7-.2h-4.7c-1.5,0-2.7-.3-3.6-.8-.9-.6-1.3-1.4-1.3-2.4,0-.7.2-1.4.7-2.1.4-.6,1.1-1.1,2-1.4-1-.5-1.7-1.1-2.2-1.9s-.8-1.7-.8-2.9c0-2.2.7-3.8,2.1-4.8,1.4-1,3.5-1.5,6.3-1.5.6,0,1.2,0,1.9.1s1.2.2,1.6.2h6.6l-.1,3.6h-2.5c.6.6.9,1.5.9,2.7,0,1.7-.5,3-1.6,4s-2.7,1.5-4.8,1.5c-.4,0-.7,0-1.1-.1s-.7-.1-1-.1c-.6.1-1.2.2-1.6.4-.4.2-.7.5-.7.8s.1.5.3.6.6.1,1,.1h4.4c1.8,0,3.1.4,4.1,1.2s1.5,2,1.5,3.5c-.1,3.4-3.1,5.1-9.3,5.1ZM223.4,26.5c1.3,0,2.1-.2,2.6-.6s.7-1.2.7-2.2-.2-1.7-.7-2.2-1.4-.7-2.6-.7-2,.2-2.5.7c-.5.4-.8,1.2-.8,2.2s.2,1.7.7,2.1c.5.5,1.3.7,2.6.7Z"/>
    <path fill="#0a9ab3" d="M239.7,35.4c-1.1,0-2.1-.2-3-.6-.9-.4-1.7-1-2.2-1.8-.6-.8-.8-1.8-.8-3,0-1.8.6-3.1,1.8-4.1s3-1.5,5.3-1.5h4.8v-.4c0-.9-.3-1.5-.9-1.9s-1.7-.6-3.2-.6c-1.9,0-3.9.3-5.7.9v-3.7c.8-.3,1.9-.6,3.1-.8,1.2-.2,2.5-.3,3.8-.3,2.6,0,4.7.5,6.2,1.6s2.2,2.8,2.2,5.1v10.7h-5.1l-.3-1.4c-.6.6-1.4,1-2.4,1.3-.9.3-2.1.5-3.6.5ZM241.6,31.8c.9,0,1.7-.2,2.4-.5s1.2-.7,1.6-1.2v-2.4h-4.1c-1.7,0-2.6.7-2.6,2.1,0,.6.2,1.1.6,1.5.5.3,1.2.5,2.1.5Z"/>
  </g>
  <g>
    <path fill="#15181f" d="M139.8,71v-23.2h11.6c2.7,0,4.8.7,6,2.2,1.3,1.4,1.9,3.4,1.9,5.8,0,1.6-.4,2.9-1.2,4.1s-1.9,2.1-3.2,2.6c.3.3.6.6.8.9s.4.8.7,1.4l2.7,6.3h-6l-2.6-5.9c-.2-.5-.5-.9-.8-1.1-.3-.2-.8-.3-1.4-.3h-2.7v7.2h-5.8ZM145.6,59.2h4.3c1.1,0,2-.3,2.6-.8.6-.6,1-1.4,1-2.6,0-2.3-1.1-3.5-3.3-3.5h-4.5v6.9h-.1Z"/>
    <path fill="#15181f" d="M171,71.4c-3,0-5.4-.7-7.2-2.2s-2.7-3.7-2.7-6.7c0-2.7.7-4.9,2.2-6.5s3.7-2.4,6.7-2.4c2.7,0,4.8.7,6.3,2.1,1.5,1.4,2.2,3.3,2.2,5.6v3.1h-12.1c.3,1.1.9,1.9,1.9,2.4s2.3.7,4,.7c.9,0,1.9-.1,2.9-.3,1-.2,1.8-.4,2.4-.6v3.8c-.8.4-1.8.7-2.9.8-1.1.1-2.4.2-3.7.2ZM166.5,61h7.1v-.8c0-.8-.3-1.5-.8-2s-1.4-.7-2.6-.7c-1.4,0-2.4.3-2.9.8-.5.6-.8,1.5-.8,2.7Z"/>
    <path fill="#15181f" d="M187.7,71.4c-1.4,0-2.7-.1-3.9-.3-1.2-.2-2.2-.4-2.9-.7v-4.4c.8.4,1.8.6,2.9.8,1.1.2,2.1.3,3,.3,1,0,1.8,0,2.2-.1.5-.1.7-.4.7-.8,0-.5-.4-.8-1.2-1.1-.8-.2-1.8-.6-3.2-1-1.6-.6-2.7-1.2-3.5-1.9s-1.2-1.8-1.2-3.3c0-1.7.6-3,1.9-3.9,1.3-.9,3.3-1.3,6-1.3,1.1,0,2.1.1,3.2.3,1.1.2,1.9.4,2.6.6v4.4c-.7-.3-1.4-.5-2.3-.7-.9-.1-1.6-.2-2.3-.2-.9,0-1.6.1-2.2.2-.6.1-.9.4-.9.8,0,.5.3.8,1,1s1.6.5,2.9.9c1.3.4,2.4.8,3.1,1.3.7.5,1.3,1,1.6,1.7.3.6.5,1.5.5,2.4,0,1.7-.7,3-2,3.9-1.4.6-3.4,1.1-6,1.1Z"/>
    <path fill="#15181f" d="M207.2,71.4c-3,0-5.4-.7-7.2-2.2s-2.7-3.7-2.7-6.7c0-2.7.7-4.9,2.2-6.5s3.7-2.4,6.7-2.4c2.7,0,4.8.7,6.3,2.1,1.5,1.4,2.2,3.3,2.2,5.6v3.1h-12.1c.3,1.1.9,1.9,1.9,2.4,1,.4,2.3.7,4,.7.9,0,1.9-.1,2.9-.3,1-.2,1.8-.4,2.4-.6v3.8c-.8.4-1.8.7-2.9.8-1.1.1-2.4.2-3.7.2ZM202.7,61h7.1v-.8c0-.8-.3-1.5-.8-2s-1.4-.7-2.6-.7c-1.4,0-2.4.3-2.9.8-.5.6-.8,1.5-.8,2.7Z"/>
    <path fill="#15181f" d="M223.1,71.4c-1.1,0-2.1-.2-3-.6s-1.7-1-2.2-1.8c-.6-.8-.8-1.8-.8-3,0-1.8.6-3.1,1.8-4.1s3-1.5,5.3-1.5h4.8v-.4c0-.9-.3-1.5-.9-1.9s-1.7-.6-3.2-.6c-1.9,0-3.9.3-5.7.9v-3.7c.8-.3,1.9-.6,3.1-.8,1.2-.2,2.5-.3,3.8-.3,2.6,0,4.7.5,6.2,1.6s2.2,2.8,2.2,5.1v10.7h-5.1l-.3-1.4c-.6.6-1.4,1-2.4,1.3-1,.3-2.2.5-3.6.5ZM224.9,67.8c.9,0,1.7-.2,2.4-.5s1.2-.7,1.6-1.2v-2.4h-4.1c-1.7,0-2.6.7-2.6,2.1,0,.6.2,1.1.6,1.5.5.3,1.2.5,2.1.5Z"/>
    <path fill="#15181f" d="M237.9,71v-17.1h5.5l.2,1.6c.7-.5,1.7-.9,2.8-1.2s2.2-.6,3.3-.7v4.4c-.6.1-1.3.2-2.1.3s-1.5.3-2.2.6c-.7.2-1.3.4-1.7.7v11.4h-5.8Z"/>
    <path fill="#15181f" d="M260.2,71.4c-3,0-5.4-.7-7.1-2.2-1.7-1.5-2.6-3.7-2.6-6.7s.9-5.2,2.7-6.7,4.2-2.2,7.1-2.2c1.2,0,2.3.1,3.3.3.9.2,1.8.5,2.7.9v4.1c-1.3-.6-2.9-1-4.7-1-1.7,0-3,.3-3.8,1s-1.3,1.9-1.3,3.6c0,1.6.4,2.8,1.2,3.5.8.7,2.1,1.1,3.9,1.1s3.3-.4,4.8-1.1v4.3c-.9.4-1.8.7-2.8.8-1.1.2-2.2.3-3.4.3Z"/>
    <path fill="#15181f" d="M269.2,71v-24.3h5.8v8.5c.6-.5,1.5-.9,2.4-1.2,1-.3,2-.5,3.1-.5,2.3,0,4,.5,5,1.6,1.1,1.1,1.6,2.7,1.6,5v10.9h-5.8v-10.4c0-1-.2-1.7-.6-2.1-.4-.4-1.1-.6-2.2-.6-.6,0-1.3.1-1.9.4-.6.3-1.2.6-1.6,1.1v11.6h-5.8Z"/>
  </g>
  <g>
    <path fill="#15181f" d="M139.8,107v-23.2h16.8v4.5h-11.1v4.9h9.7v4.5h-9.7v9.3s-5.7,0-5.7,0Z"/>
    <path fill="#15181f" d="M166.7,107.4c-3.3,0-5.7-.8-7.3-2.3s-2.3-3.7-2.3-6.6.8-5.1,2.4-6.6c1.6-1.5,4-2.3,7.3-2.3s5.7.8,7.3,2.3,2.4,3.7,2.4,6.6-.8,5.1-2.3,6.6c-1.7,1.5-4.2,2.3-7.5,2.3ZM166.7,102.8c1.3,0,2.3-.3,2.9-1,.6-.7.9-1.8.9-3.3,0-1.6-.3-2.7-.9-3.3-.6-.7-1.5-1-2.9-1-1.3,0-2.3.3-2.8,1-.6.7-.9,1.8-.9,3.3,0,1.6.3,2.7.9,3.3.6.7,1.5,1,2.8,1Z"/>
    <path fill="#15181f" d="M185.2,107.4c-2,0-3.6-.6-4.7-1.7s-1.7-2.8-1.7-5v-10.8h5.8v10.4c0,1,.2,1.7.7,2.1s1.2.7,2.1.7c.7,0,1.4-.1,2-.4s1.1-.6,1.5-1.1v-11.7h5.8v17.1h-5.4l-.2-1.4c-.7.5-1.5,1-2.5,1.3-1,.3-2.1.5-3.4.5Z"/>
    <path fill="#15181f" d="M200.4,107v-17.1h5.4l.2,1.5c.7-.5,1.6-.9,2.6-1.3,1.1-.4,2.2-.6,3.4-.6,2.2,0,3.8.5,4.8,1.6s1.5,2.7,1.5,4.9v11h-5.8v-10.5c0-1-.2-1.6-.6-2.1-.4-.4-1.1-.6-2.2-.6-.6,0-1.3.1-1.9.4-.6.3-1.2.6-1.6,1.1v11.7h-5.8Z"/>
    <path fill="#15181f" d="M228.8,107.4c-1.7,0-3.1-.3-4.2-.8-1.2-.5-2.1-1.4-2.7-2.6s-.9-2.8-.9-4.9.4-3.8,1.1-5.2c.7-1.4,1.7-2.5,3-3.2s2.7-1.1,4.3-1.1c.9,0,1.7.1,2.4.3s1.4.5,2,.9v-8h5.8v24.2h-5l-.3-1.4c-.7.6-1.5,1.1-2.3,1.4-1.1.2-2.1.4-3.2.4ZM230.4,103.1c1.3,0,2.4-.4,3.2-1.3v-6.9c-.8-.7-1.9-1.1-3.1-1.1s-2.2.5-2.8,1.4-1,2.2-1,3.9c0,1.6.3,2.7.9,3.2.7.6,1.6.8,2.8.8Z"/>
    <path fill="#15181f" d="M248.3,107.4c-1.1,0-2.1-.2-3-.6s-1.7-1-2.2-1.8c-.6-.8-.8-1.8-.8-3,0-1.8.6-3.1,1.8-4.1s3-1.5,5.3-1.5h4.8v-.4c0-.9-.3-1.5-.9-1.9-.6-.4-1.7-.6-3.2-.6-1.9,0-3.9.3-5.7.9v-3.7c.8-.3,1.9-.6,3.1-.8,1.2-.2,2.5-.3,3.8-.3,2.6,0,4.7.5,6.2,1.6s2.2,2.8,2.2,5.1v10.7h-5.1l-.3-1.4c-.6.6-1.4,1-2.4,1.3-1,.3-2.2.5-3.6.5ZM250.1,103.8c.9,0,1.7-.2,2.4-.5s1.2-.7,1.6-1.2v-2.4h-4.1c-1.7,0-2.6.7-2.6,2.1,0,.6.2,1.1.6,1.5.5.3,1.2.5,2.1.5Z"/>
    <path fill="#15181f" d="M270.2,107.4c-2.1,0-3.7-.5-4.7-1.6s-1.5-2.6-1.5-4.5v-6.9h-2.3v-4.4h2.3v-3.6l5.8-1.5v5.1h4.1l-.3,4.4h-3.9v6.6c0,.8.2,1.4.6,1.7.4.3,1,.5,1.8.5.7,0,1.4-.1,2.1-.4v3.9c-1,.4-2.4.7-4,.7Z"/>
    <path fill="#15181f" d="M278.2,107v-12.8h-2.5l.5-4.3h7.8v17.1h-5.8ZM277.8,87.2v-4.4h6.3v4.4h-6.3Z"/>
    <path fill="#15181f" d="M296.6,107.4c-3.3,0-5.7-.8-7.3-2.3-1.6-1.5-2.3-3.7-2.3-6.6s.8-5.1,2.4-6.6,4-2.3,7.3-2.3,5.7.8,7.3,2.3c1.6,1.5,2.4,3.7,2.4,6.6s-.8,5.1-2.3,6.6c-1.7,1.5-4.2,2.3-7.5,2.3ZM296.6,102.8c1.3,0,2.3-.3,2.9-1s.9-1.8.9-3.3c0-1.6-.3-2.7-.9-3.3-.6-.7-1.5-1-2.9-1-1.3,0-2.3.3-2.8,1s-.9,1.8-.9,3.3c0,1.6.3,2.7.9,3.3s1.5,1,2.8,1Z"/>
    <path fill="#15181f" d="M309.2,107v-17.1h5.4l.2,1.5c.7-.5,1.6-.9,2.6-1.3,1.1-.4,2.2-.6,3.4-.6,2.2,0,3.8.5,4.8,1.6s1.5,2.7,1.5,4.9v11h-5.8v-10.5c0-1-.2-1.6-.6-2.1-.4-.4-1.1-.6-2.2-.6-.6,0-1.3.1-1.9.4s-1.2.6-1.6,1.1v11.7h-5.8Z"/>
  </g>
</svg>