<svg width="511" height="210" viewBox="0 0 511 210" fill="none" xmlns="http://www.w3.org/2000/svg">
<path d="M493.516 32.8529C491.84 22.9081 483.994 15.0622 474.055 13.3863C449.671 9.2836 425.298 9.71185 400.92 14.6657C395.242 15.8183 390.78 20.2329 389.627 25.9058C389.617 25.9798 389.601 26.0538 389.58 26.1278C388.316 32.3982 393.688 48.0106 400.005 47.006C411.885 45.1292 428.021 44.9547 436.078 44.7432C446.864 44.4471 460.774 45.3354 466.108 46.6307C468.329 47.1699 470.015 46.8897 470.169 49.1631V49.2636C470.364 52.5891 445.479 50.5536 435.708 51.1034C429.972 51.4365 413.54 52.7159 400.513 56.1683C391.652 58.5105 385.472 66.5096 385.562 75.6772C385.667 86.7269 386.698 89.952 388.665 101.007C390.219 109.757 397.076 116.672 405.826 118.232C415.618 119.977 425.404 120.986 435.195 121.272C440.26 121.42 445.288 119.829 449.132 116.535C451.643 114.378 453.594 111.687 453.594 108.552C453.594 99.6959 454.149 84.7655 444.458 85.0457C437.797 85.236 425.621 85.9551 418.684 86.378C417.119 86.4785 415.972 85.2043 415.972 83.8191C415.972 83.338 416.115 82.8463 416.421 82.3916C416.839 81.7731 417.505 81.3713 418.251 81.2867C425.018 80.5571 459.008 77.2686 462.994 84.7338C465.675 89.7722 465.913 102.487 463.74 112.443C462.899 116.286 466.172 119.776 470.068 119.199C472.965 118.776 475.863 118.28 478.76 117.724C485.739 116.387 491.279 111.01 492.622 104.036C497.217 80.3139 497.508 56.586 493.516 32.8687V32.8529ZM489.635 49.861L488.985 49.898C487.695 44.4736 486.193 39.1655 483.989 34.3385C482.879 31.9382 481.573 29.6648 479.976 27.7509C475.017 22.0675 465.95 20.862 458.828 20.032C453.525 19.4821 448.122 19.3553 442.714 19.4134L442.629 18.7473C453.895 16.5109 469.228 15.6015 479.431 22.0886C485.554 26.3235 488.229 34.164 489.297 41.3173C489.704 44.1564 489.857 47.006 489.635 49.8663V49.861Z" fill="#3D6C89"/>
<path d="M122.879 32.0014C121.299 23.1193 114.346 16.167 105.475 14.5968C82.2228 10.4729 58.9708 10.4729 35.7081 14.5968C26.8895 16.1617 19.9001 23.04 18.3352 31.8587C17.2831 37.7748 16.5006 43.6962 15.9772 49.6123C14.6291 65.0925 29.6176 76.9194 44.3153 71.8545C51.1619 69.4912 54.7993 67.8153 54.7993 78.6588C54.7993 110.835 28.9567 98.5008 19.842 93.1504C18.663 94.0122 18.5308 94.1073 17.3518 94.9638C20.3971 108.483 31.6689 118.903 45.6265 120.669C49.6023 121.177 53.5886 121.557 57.5591 121.816H57.5909C57.7653 121.795 57.9557 121.785 58.1513 121.763C78.5642 120.003 88.6253 109.18 92.9183 102.582C93.7272 101.345 95.6464 101.974 95.5671 103.455C95.2657 108.705 94.2506 116.228 90.9991 121.071C90.9674 121.108 90.9463 121.145 90.8987 121.187C94.8745 120.78 98.845 120.262 102.821 119.617C113.432 117.883 121.642 109.466 123.366 98.855C126.993 76.5652 126.824 54.2807 122.874 32.0014H122.879ZM118.327 51.1984L117.677 51.1772C116.81 45.7528 115.652 40.4288 113.574 35.66C112.533 33.2967 111.227 31.0656 109.583 29.2839C104.285 24.0234 95.0067 22.9607 87.7794 22.1994C82.3761 21.7024 76.8988 21.5861 71.4004 21.6337L71.3211 20.9887C83.0211 18.7523 103.265 17.4993 112.369 26.6828C116.408 31.1449 118.121 36.9765 118.618 42.7604C118.846 45.5783 118.809 48.4016 118.333 51.1984H118.327Z" fill="#3D6C89"/>
<path d="M266.304 31.9825C264.691 22.8096 257.438 15.6564 248.26 14.065C246.79 13.806 245.331 13.568 243.866 13.346C240.266 12.7961 237.21 16 237.929 19.5687C238.151 20.6631 238.325 21.747 238.463 22.8202C238.828 25.543 235.386 27.0339 233.631 24.9191C229.501 19.9388 222.597 14.1073 211.642 11.0938H211.621C200.333 11.2153 189.04 12.3203 177.747 14.3928C169.674 15.8732 163.388 22.1646 161.897 30.2431C159.761 41.8321 158.662 53.4264 158.582 65.0207C158.519 74.1883 165.328 81.9707 174.422 83.1127C177.895 83.5515 181.866 83.8423 186.36 83.8898C194.058 83.9533 210.389 82.3302 215.999 78.0583C215.999 78.0583 213.186 89.5363 186.867 91.4766C179.741 92.0106 172.133 91.6934 165.884 90.6624C162.907 90.1707 160.306 92.7296 160.75 95.7168C161.527 100.988 162.526 106.259 163.726 111.53C164.313 114.084 166.317 116.072 168.86 116.658C179.545 119.106 190.23 120.682 200.915 121.38C201.1 121.353 201.296 121.348 201.496 121.327C231.209 118.757 238.986 97.0121 238.986 97.0121C238.986 97.0121 239.763 112.561 234.35 120.629C234.318 120.676 234.286 120.729 234.244 120.772C239.948 120.18 245.643 119.344 251.342 118.26C258.643 116.87 264.369 111.128 265.759 103.827C270.311 79.8771 270.491 55.9271 266.293 31.9719L266.304 31.9825ZM216.776 54.5155C208.607 57.3493 194.671 61.2141 190.151 56.514C183.621 49.715 184.266 43.9628 191.996 39.4371C197.373 36.2914 210.215 43.6825 217.537 48.4884C219.895 50.0269 219.43 53.5903 216.776 54.5155ZM262.466 49.5299L261.815 49.5193C261.477 46.5322 261.001 43.5715 260.346 40.6848C259.193 35.7785 257.639 30.8723 254.382 27.0233C251.96 24.3799 248.899 22.8625 245.553 21.0332L245.722 20.4094C257.041 20.7742 261.392 30.3964 262.497 40.3306C262.815 43.4023 262.857 46.4846 262.466 49.5352V49.5299Z" fill="#3D6C89"/>
<path d="M353.671 27.0407C353.148 22.1079 349.817 17.9471 345.122 16.3399C333.898 12.4857 322.679 12.4857 311.455 16.3399C306.765 17.9471 303.429 22.1079 302.906 27.0407C299.972 54.7549 299.972 82.4744 302.906 110.189C303.429 115.121 306.76 119.282 311.455 120.895C322.679 124.749 333.898 124.749 345.122 120.895C349.812 119.282 353.148 115.121 353.671 110.189C356.605 82.4744 356.605 54.7549 353.671 27.0407ZM350.013 48.2837L348.992 48.2255C348.204 41.8071 347.094 35.3465 344.757 29.3563C344.541 28.8329 344.276 28.2619 344.059 27.7333C341.717 22.4569 335.521 21.299 330.144 20.5377L330.081 19.8927C335.246 18.6661 341.289 19.3111 345.212 23.2711C346.217 24.2809 346.946 25.5603 347.491 26.8715C349.077 30.4349 349.976 34.2944 350.351 38.1115C350.663 41.5111 350.631 44.9159 350.018 48.2837H350.013Z" fill="#3D6C89"/>
<path d="M506.194 26.5823C504.756 18.525 499.802 11.2184 492.755 7.04173L491.121 6.1218L489.424 5.33405C488.943 5.11728 488.171 4.83707 487.674 4.65732C486.855 4.31895 485.84 4.10218 484.999 3.83784C481.24 3.02893 477.111 2.53196 473.315 2.00326C458.992 0.18455 444.427 -0.412876 430.004 0.322011C422.206 0.692098 414.344 1.501 406.615 2.61126C405.335 2.78573 402.597 3.25627 401.259 3.4466C389.612 5.38692 380.238 14.6602 378.102 26.2704C376.653 34.2114 375.585 42.4696 374.919 50.5164C373.328 69.782 374.063 89.2698 377.087 108.419C377.906 113.495 380.005 118.464 383.32 122.504C386.17 126.046 389.934 128.933 394.074 130.831C394.566 131.074 395.401 131.365 395.893 131.576C396.754 131.946 397.817 132.189 398.7 132.491C400.26 132.855 401.867 133.194 403.337 133.411C406.096 133.913 409.549 134.436 412.335 134.822C418.864 135.705 425.711 136.329 432.293 136.662C440.768 137.074 449.354 137.053 457.819 136.503C466.246 135.943 474.832 134.806 483.138 133.315C494.653 131.269 504.291 122.165 506.876 110.761C506.982 110.296 507.162 109.291 507.262 108.837C507.363 108.261 507.601 106.69 507.675 106.125C508.188 102.677 508.695 98.7599 509.033 95.2916C511.407 72.415 510.35 49.1523 506.2 26.5982L506.194 26.5823ZM505.259 87.6467C504.709 92.8596 504 98.4003 503.123 103.566C502.827 105.146 502.536 107.187 502.166 108.742C500.093 118.417 491.914 126.13 482.16 127.664C472.855 129.16 463.27 130.164 453.864 130.667C443.237 131.269 432.473 131.164 421.857 130.355C416.031 129.874 409.935 129.213 404.161 128.319C402.676 128.113 401.301 127.88 399.948 127.59C399.192 127.362 398.325 127.161 397.6 126.876C397.177 126.707 396.474 126.485 396.072 126.289C390.532 123.926 385.89 119.458 383.336 113.992C381.332 109.841 380.883 105.146 380.127 100.642C379.043 93.5998 378.239 86.4307 377.806 79.325C376.997 66.8584 377.246 54.212 378.446 41.777C378.916 37.1245 379.551 32.1812 380.28 27.5551C381.174 21.1473 384.272 15.4268 389.178 11.1867C392.673 8.15199 397.035 6.1641 401.581 5.30761C425.135 1.12034 449.365 0.586359 473.072 3.87485C475.086 4.17092 478.195 4.62031 480.161 4.97982C481.642 5.20716 483.08 5.48737 484.491 5.82045C485.279 6.07422 486.199 6.31213 486.966 6.61878C487.41 6.80911 488.161 7.06288 488.573 7.26907L490.127 8.03039L491.624 8.90274C492.068 9.15652 492.623 9.57947 493.051 9.87554C497.233 12.905 500.521 17.198 502.266 22.0567C502.885 23.6639 503.26 25.3399 503.556 27.037C506.734 47.101 507.268 67.5139 505.264 87.6572L505.259 87.6467Z" fill="#59C1C1"/>
<path d="M280.029 37.2936C279.691 34.9462 279.315 32.4878 278.913 30.1404L278.29 26.5769C276.45 16.3467 268.72 7.53333 258.749 4.55149C258.173 4.40345 257.533 4.17083 256.957 4.04923C256.1 3.88533 255.09 3.62627 254.229 3.52582C241.778 1.52206 229.116 0.401227 216.506 0.295488C205.71 0.173888 194.824 0.834758 184.108 2.14064C181.755 2.44199 179.297 2.77507 176.955 3.13987L173.386 3.695C163.203 5.34982 154.31 12.9419 151.175 22.8073C150.99 23.4682 150.805 23.8912 150.641 24.5996C150.467 25.4614 150.197 26.4501 150.076 27.3277C148.701 34.9726 147.696 42.8713 147.046 50.622C145.455 69.8507 146.206 89.3014 149.246 108.403C151.191 120.616 160.761 130.423 172.931 132.686C190.494 135.922 208.518 137.249 226.361 136.413C236.01 135.975 245.764 134.737 255.27 133.04C266.367 131.084 275.926 122.456 278.75 111.522C278.924 111.02 279.088 110.121 279.194 109.619C279.305 109.011 279.469 108.371 279.532 107.742C280.558 101.213 281.298 94.509 281.811 87.9056C283.006 71.0614 282.387 54.0162 280.034 37.2936H280.029ZM276.561 94.6042C276.027 98.8602 275.324 103.127 274.562 107.351C274.515 107.658 274.361 108.266 274.293 108.572C274.182 109.016 274.049 109.725 273.88 110.143C271.353 119.041 263.396 125.993 254.287 127.399C239.124 129.799 223.649 130.957 208.296 130.741C200.08 130.619 191.647 130.016 183.489 129.033C180.565 128.679 177.6 128.256 174.681 127.812C174.174 127.753 173.518 127.611 173.016 127.51C163.208 125.692 155.236 117.476 153.454 107.674C152.624 103.132 151.841 98.1518 151.27 93.5785C149.653 80.6149 149.092 67.4398 149.679 54.3863C150.023 46.1017 150.869 37.6796 152.132 29.4901C152.217 28.9772 152.444 27.2907 152.545 26.8413L152.883 25.1495C154.136 19.8202 157.15 14.9668 161.305 11.4034C164.81 8.38453 169.162 6.40721 173.692 5.55601C198.383 1.1837 223.802 0.818897 248.582 4.6255C249.608 4.75768 251.083 5.04317 252.119 5.20707C252.643 5.29166 254.303 5.57187 254.763 5.65646C255.191 5.74105 256.021 5.95253 256.454 6.03712C256.957 6.14815 257.602 6.39135 258.109 6.52881C264.945 8.71232 270.745 13.9517 273.669 20.5022C274.599 22.5853 275.265 24.7847 275.641 27.0316C279.204 49.406 279.495 72.1981 276.555 94.5989L276.561 94.6042Z" fill="#59C1C1"/>
<path d="M136.335 37.2936C135.996 34.9462 135.621 32.4878 135.214 30.1404L134.595 26.5769C132.75 16.3467 125.015 7.53333 115.055 4.55149C114.479 4.40345 113.839 4.17083 113.252 4.04923C112.406 3.88533 111.386 3.62627 110.529 3.52582C98.0784 1.52206 85.4109 0.401227 72.8068 0.295488C62.0108 0.173888 51.1197 0.834758 40.3977 2.14064C38.0503 2.44199 35.5972 2.77507 33.2551 3.13987L29.6864 3.695C19.5037 5.34982 10.611 12.9419 7.47586 22.8073C7.29081 23.4682 7.10577 23.8912 6.94187 24.5996C6.76741 25.4614 6.49248 26.4501 6.37617 27.3277C5.00156 34.9726 3.98647 42.8713 3.34146 50.622C1.75537 69.8507 2.50612 89.3014 5.54083 108.403C7.49172 120.616 17.0611 130.423 29.2317 132.686C46.7949 135.922 64.8076 137.249 82.6617 136.413C92.3104 135.975 102.065 134.737 111.565 133.04C122.668 131.084 132.227 122.456 135.055 111.522C135.225 111.02 135.388 110.121 135.499 109.619C135.611 109.011 135.769 108.371 135.838 107.742C136.864 101.213 137.604 94.509 138.106 87.9056C139.301 71.0614 138.688 54.0162 136.34 37.2936H136.335ZM132.861 94.6042C132.327 98.8602 131.624 103.127 130.863 107.351C130.815 107.658 130.662 108.266 130.593 108.572C130.482 109.016 130.35 109.725 130.181 110.143C127.654 119.041 119.697 125.993 110.587 127.399C95.4244 129.799 79.9494 130.957 64.5961 130.741C56.3749 130.619 47.9475 130.016 39.7897 129.033C36.8608 128.679 33.9001 128.256 30.9817 127.812C30.4741 127.753 29.8185 127.611 29.3163 127.51C19.5037 125.692 11.5362 117.476 9.75454 107.674C8.9192 103.132 8.14201 98.1518 7.57102 93.5785C5.94793 80.6149 5.38751 67.4398 5.97965 54.3863C6.3233 46.1017 7.16921 37.6796 8.42751 29.4901C8.51739 28.9772 8.73944 27.2907 8.83989 26.8413L9.01436 26.0007L9.17826 25.1548C10.4313 19.8255 13.4501 14.9721 17.6057 11.4087C21.1109 8.38982 25.4568 6.4125 29.993 5.5613C54.6725 1.18898 80.1028 0.824184 104.883 4.63079C105.908 4.76297 107.383 5.04846 108.42 5.21236C108.943 5.29695 110.603 5.57716 111.063 5.66175C111.486 5.74634 112.321 5.95782 112.755 6.04241C113.257 6.15344 113.902 6.39663 114.41 6.5341C121.246 8.71761 127.046 13.957 129.964 20.5075C130.905 22.5906 131.571 24.79 131.941 27.0369C135.505 49.4113 135.796 72.2034 132.856 94.6042H132.861Z" fill="#59C1C1"/>
<path d="M364.541 39.2927C364.261 35.6659 363.928 31.6742 363.542 28.0685C363.04 22.3375 361.813 16.6381 359.032 11.5203C357.129 8.09969 354.427 4.82177 350.536 3.53704C343.309 1.25836 335.748 0.00535418 328.162 6.7224e-05C320.575 -0.0105067 312.999 1.22664 305.771 3.48946C301.864 4.75304 299.147 8.04153 297.233 11.4675C294.447 16.5853 293.22 22.2899 292.718 28.0262C292.332 31.6319 292.015 35.6183 291.724 39.2504C290.291 57.9821 289.974 76.8301 290.904 95.6147C291.095 99.2627 291.312 103.26 291.602 106.886C291.972 112.829 293.109 118.629 295.906 124.053C297.36 126.813 299.369 129.546 302.06 131.376C303.006 132.021 304.064 132.576 305.211 132.962C308.901 134.183 312.655 135.135 316.499 135.796C327.982 137.852 340.02 136.8 351.059 133.094C355.347 131.672 358.445 127.939 360.449 124.148C363.241 118.814 364.435 112.882 364.779 106.939C365.065 103.312 365.287 99.3103 365.477 95.6675C366.376 76.8883 366.016 58.035 364.546 39.298L364.541 39.2927ZM361.332 92.5958C361.136 95.0807 360.861 98.4696 360.629 100.954C360.259 104.581 360.021 108.277 359.328 111.861C358.181 117.571 355.236 125.872 349.399 127.87C335.574 132.126 320.628 132.285 306.818 127.966C299.94 125.523 296.9 114.595 296.234 107.87C295.7 102.863 295.229 97.5761 294.843 92.5482C293.284 71.1519 293.273 49.6129 294.981 28.2218C295.113 26.4137 295.282 24.5104 295.599 22.7393C296.752 16.3526 299.744 7.63972 306.327 5.23944C320.406 0.576345 335.902 0.555198 349.986 5.22887C353.322 6.3497 355.696 9.37913 357.335 12.4297C359.429 16.4372 360.592 20.9681 361.078 25.4938C361.432 29.1365 361.644 32.9907 361.887 36.644C362.955 55.2699 362.707 73.9963 361.327 92.5852L361.332 92.5958Z" fill="#59C1C1"/>
<path d="M0 167.078V174.929H3.20918C3.20918 176.287 3.71144 177.345 4.72125 178.085C5.72577 178.836 7.20612 179.169 9.1623 179.079L11.367 179.015C11.7318 179.015 12.2499 179.068 12.9213 179.179C13.5928 179.29 14.2959 179.544 15.0361 179.935C15.7657 180.332 16.4054 180.935 16.9606 181.749C17.5104 182.563 17.8435 183.652 17.9651 185.011C17.9651 185.281 17.9545 185.55 17.9175 185.83C17.8858 186.116 17.8382 186.438 17.78 186.787L12.3715 190.546C11.7 190.805 11.0286 190.938 10.3571 190.938C9.9289 190.938 9.59583 190.901 9.34734 190.805C9.10414 190.721 8.89266 190.488 8.70762 190.113C8.52257 189.743 8.3111 189.182 8.0679 188.432C7.81941 187.686 7.51277 186.629 7.14797 185.275L3.20918 186.259L4.76883 191.926C5.19179 193.375 5.7152 194.786 6.32849 196.145C6.93649 197.504 7.60793 198.736 8.34282 199.83C9.07242 200.935 9.85489 201.808 10.6797 202.468C11.5097 203.129 12.3768 203.462 13.2967 203.462C13.7197 203.462 14.1056 203.415 14.4387 203.33C14.777 203.24 15.0414 203.172 15.2211 203.129C15.3375 203.092 16.0565 202.627 17.3729 201.744C18.6841 200.872 20.6297 199.592 23.1939 197.922L31.0767 192.714L31.7217 192.518C32.0865 192.429 32.4196 192.386 32.7263 192.386C33.6462 192.386 34.4339 192.825 35.1054 193.703V202.865L41.8886 208.073H42.9935V174.923H47.847V167.072H0V167.078ZM35.1107 187.512C34.7459 186.766 34.3018 185.952 33.7837 185.069C33.2602 184.197 32.6787 183.377 32.039 182.626C31.3939 181.881 30.6961 181.257 29.9295 180.755C29.1576 180.247 28.3857 179.994 27.5873 179.994C27.5292 180.083 27.3706 180.105 27.1327 180.057C26.8895 180.02 26.5088 180.083 25.9854 180.258C25.4726 180.432 24.8117 180.792 24.0134 181.342C23.2256 181.897 22.2475 182.785 21.0844 184.017C21.0844 179.75 20.2861 176.721 18.7053 174.923H35.1054V187.506L35.1107 187.512Z" fill="#3D6C89"/>
<path d="M91.3956 174.929V167.078H43.7284V174.929H68.1118L46.9376 182.839L48.862 195.226L51.5161 195.559C52.859 195.733 54.4821 196.061 56.3748 196.542C58.2675 197.023 60.2713 197.758 62.3755 198.721C64.485 199.688 66.6209 200.925 68.7938 202.437C70.9615 203.96 72.997 205.837 74.8897 208.073H75.9947V186.058C76.4758 186.058 76.9411 186.069 77.364 186.09C77.7923 186.111 78.1623 186.143 78.469 186.185C82.376 186.582 84.7922 188.014 85.7121 190.473L84.3375 189.749C83.1162 189.267 82.08 189.019 81.2182 189.019C80.4886 189.019 79.6638 189.289 78.7439 189.817C77.8293 190.341 77.3693 191.107 77.3693 192.122C77.3693 192.921 77.7394 193.629 78.4743 194.269C79.2039 194.903 80.1238 195.221 81.2235 195.221C81.8949 195.221 82.6351 195.046 83.4281 194.692C84.2159 194.338 84.9667 193.851 85.6751 193.212C86.373 192.572 86.9757 191.816 87.4621 190.933C87.9538 190.061 88.1917 189.093 88.1917 188.036C88.1917 186.624 87.8269 185.223 87.0973 183.817C86.3624 182.416 85.4002 181.11 84.2053 179.894C83.0105 178.688 81.6993 177.641 80.2665 176.764C78.8338 175.891 77.4063 175.268 76.0053 174.924H91.4009L91.3956 174.929ZM69.3014 199.048C68.1964 197.859 67.176 196.812 66.2297 195.881C65.2833 194.962 64.3528 194.258 63.4382 193.772L60.6837 192.249L69.3014 188.564V199.043V199.048Z" fill="#3D6C89"/>
<path d="M87.2719 167.078V174.929H122.108V189.167C122.108 186.661 121.526 184.726 120.363 183.367C119.2 182.003 117.793 181.316 116.144 181.316C114.685 181.316 113.305 181.966 112.02 183.262C110.735 184.562 110.096 186.46 110.096 188.966C110.096 189.585 110.127 190.246 110.186 190.943C109.514 187.914 108.229 185.588 106.337 183.954C104.38 182.246 102.271 181.39 100.013 181.39C98.8503 181.39 97.7031 181.638 96.5769 182.146C95.4402 182.648 94.4251 183.42 93.5052 184.451C92.5906 185.487 91.8557 186.772 91.3058 188.305C90.756 189.844 90.4758 191.625 90.4758 193.65C90.4758 195.887 90.8935 197.827 91.7129 199.45C92.543 201.073 93.6057 202.411 94.9221 203.468C96.2333 204.526 97.6713 205.298 99.2257 205.779C100.785 206.26 102.297 206.503 103.767 206.503C105.782 206.503 107.537 206.075 109.038 205.218C110.535 204.356 111.285 203.135 111.285 201.56C111.285 200.285 110.989 199.228 110.413 198.393C109.831 197.557 109.102 196.886 108.214 196.384C107.325 195.881 106.347 195.527 105.279 195.326C104.217 195.131 103.217 195.03 102.303 195.03C100.96 195.03 99.6592 195.131 98.4062 195.326C97.1532 195.527 96.1593 195.739 95.4244 195.95L94.4199 196.22L94.2348 196.283C95.8209 195.009 97.4228 194.084 99.0459 193.513C100.664 192.947 102.234 192.656 103.767 192.656C105.3 192.656 106.617 192.878 107.939 193.317C109.25 193.761 110.413 194.327 111.423 195.036C112.427 195.739 113.268 196.542 113.939 197.441C114.611 198.34 115.065 199.249 115.314 200.174L116.689 200.111C116.805 197.251 117.328 195.289 118.248 194.205C119.163 193.138 120.109 192.593 121.087 192.593L121.727 192.725H121.917L122.102 192.789C123.017 193.143 123.826 193.83 124.529 194.872C125.232 195.903 125.83 197.066 126.316 198.361C126.808 199.662 127.204 200.989 127.511 202.347C127.812 203.711 128.024 204.917 128.151 205.974L128.426 208.084H129.985V174.935H134.844V167.083H87.2666L87.2719 167.078Z" fill="#3D6C89"/>
<path d="M182.516 167.078V176.769C177.621 170.308 172.556 167.078 167.295 167.078C165.038 167.078 163.092 167.422 161.474 168.104C159.856 168.781 158.514 169.632 157.44 170.642C156.372 171.651 155.59 172.783 155.103 174.036C154.612 175.289 154.369 176.462 154.369 177.567C154.369 179.148 154.844 180.417 155.791 181.39C156.737 182.357 157.821 182.839 159.048 182.839C159.904 182.839 160.681 182.675 161.384 182.342C162.088 182.014 162.896 181.845 163.811 181.845C164.546 181.845 165.402 182.067 166.381 182.505L158.038 186.264L166.381 196.082L182.516 187.782V197.267C182.516 198.631 183.093 199.926 184.25 201.153C184.922 201.681 185.387 202.3 185.625 202.998C181.47 199.307 176.822 197.468 171.694 197.468C170.224 197.468 168.622 197.631 166.878 197.959C165.133 198.292 163.441 198.456 161.786 198.456C157.446 198.456 155.283 196.701 155.283 193.185L154.363 193.317C154.363 197.536 155.511 200.883 157.8 203.373C160.089 205.853 163.346 207.1 167.56 207.1C169.643 207.1 171.519 207.011 173.195 206.831C174.877 206.656 176.362 206.445 177.647 206.207C178.932 205.964 180.016 205.758 180.904 205.583C181.787 205.409 182.511 205.324 183.056 205.324C184.821 205.324 186.508 205.89 188.099 207.042L189.289 208.094H190.394V174.945H195.247V167.094H182.511L182.516 167.078ZM168.67 181.776C168.485 180.412 167.078 179.381 164.456 178.678L164.546 178.614C164.546 178.44 164.789 178.133 165.276 177.694C165.762 177.256 166.381 176.811 167.11 176.378C167.845 175.934 168.638 175.548 169.489 175.225C170.346 174.892 171.171 174.728 171.969 174.728C174.041 174.728 176.093 175.654 178.107 177.493L168.664 181.781L168.67 181.776Z" fill="#3D6C89"/>
<path d="M195.988 167.078V179.401L194.883 174.923L192.958 167.072H191.124V174.923H192.958L195.988 186.719V202.802L202.765 208.073H203.87V174.923H208.729V167.072H195.988V167.078Z" fill="#3D6C89"/>
<path d="M215.555 187.285C216.929 185.678 218.415 184.107 220.006 182.569C221.592 181.036 223.062 179.688 224.405 178.519C225.748 177.356 226.853 176.447 227.704 175.786C228.354 175.283 228.724 174.998 228.809 174.929H231.008V167.078H204.605V174.929H211.119C208.919 180.555 207.82 185.715 207.82 190.42C207.82 192.878 208.116 195.184 208.692 197.335C209.274 199.487 210.093 201.359 211.166 202.94C212.234 204.526 213.545 205.763 215.105 206.667C216.665 207.566 218.452 208.015 220.466 208.015C222.116 208.015 223.554 207.772 224.77 207.291C225.996 206.81 227.001 206.18 227.799 205.414C228.597 204.642 229.174 203.764 229.539 202.776C229.903 201.782 230.088 200.788 230.088 199.773C230.088 198.9 229.94 198.007 229.634 197.103C229.327 196.204 228.856 195.4 228.211 194.697C227.572 193.999 226.752 193.423 225.737 192.99C224.727 192.545 223.554 192.329 222.206 192.329L221.011 192.392C219.789 192.567 218.753 192.926 217.897 193.476C217.035 194.031 216.337 194.655 215.787 195.353C215.232 196.056 214.809 196.796 214.502 197.563C214.196 198.335 214.011 199.001 213.953 199.572L213.762 200.761L213.577 200.629C213.392 200.629 213.154 200.518 212.848 200.296C212.541 200.074 212.234 199.767 211.928 199.376C211.621 198.98 211.346 198.509 211.108 197.954C210.86 197.404 210.743 196.807 210.743 196.146C210.743 194.914 211.198 193.529 212.118 191.99C213.033 190.452 214.18 188.887 215.549 187.28L215.555 187.285Z" fill="#3D6C89"/>
<path d="M254.102 167.078V178.086C254.102 178.049 254.075 178.001 254.012 177.954C251.754 173.957 249.46 171.144 247.144 169.516C244.823 167.893 242.618 167.073 240.541 167.073C239.071 167.073 237.696 167.427 236.417 168.13C235.132 168.834 234.027 169.785 233.118 170.996C232.198 172.212 231.468 173.645 230.918 175.315C230.363 176.986 230.088 178.768 230.088 180.65C230.088 184.562 230.945 187.375 232.658 189.093C234.371 190.812 236.565 191.663 239.256 191.663C240.361 191.663 241.455 191.504 242.555 191.197C243.66 190.891 244.649 190.447 245.537 189.881C246.42 189.305 247.123 188.649 247.646 187.904C248.159 187.153 248.424 186.344 248.424 185.461V185.266C248.302 183.986 247.969 182.876 247.419 181.929C246.864 180.988 246.214 180.185 245.447 179.529C244.675 178.868 243.866 178.34 243.015 177.943C242.158 177.552 241.429 177.245 240.816 177.023L239.721 176.69L239.531 176.627C240.266 176.452 241.059 176.368 241.921 176.368C242.835 176.368 243.951 176.516 245.267 176.822C246.578 177.134 247.842 177.594 249.069 178.213C250.29 178.826 251.374 179.582 252.32 180.481C253.272 181.38 253.832 182.426 254.017 183.611C254.081 183.785 254.107 183.965 254.107 184.139V202.728L260.89 208.063H261.995V174.914H266.849V167.062H254.107L254.102 167.078Z" fill="#3D6C89"/>
<path d="M262.719 167.078V174.929H287.103L265.929 182.839L267.943 195.295H268.128L270.602 195.564C271.887 195.696 273.494 196.014 275.419 196.516C277.343 197.023 279.358 197.764 281.467 198.726C283.577 199.693 285.712 200.931 287.885 202.443C290.053 203.965 292.057 205.842 293.886 208.078H294.991V174.929H299.844V167.078H262.719ZM287.103 200.037C284.962 197.573 283.011 195.834 281.24 194.824L278.586 193.312L287.108 189.553V200.037H287.103ZM282.429 201.554C281.145 200.634 279.617 200.169 277.84 200.169C276.064 200.169 274.446 200.634 273.166 201.554C271.882 202.474 271.242 203.595 271.242 204.917C271.242 206.239 271.882 207.291 273.166 208.211C274.446 209.136 276.006 209.596 277.84 209.596C279.675 209.596 281.139 209.141 282.429 208.211C283.709 207.291 284.354 206.196 284.354 204.917C284.354 203.637 283.709 202.474 282.429 201.554Z" fill="#3D6C89"/>
<path d="M339.719 153.238C329.816 153.238 323.186 156.135 319.824 161.935L328.806 167.074H316.155V174.925H321.013V202.803L327.791 208.074H328.896V174.925H333.755V167.074H328.896C330.546 162.416 336.319 160.084 346.216 160.084C354.348 160.084 360.094 161.189 363.452 163.378L364.271 162.987C358.894 156.484 350.705 153.232 339.708 153.232L339.719 153.238Z" fill="#3D6C89"/>
<path d="M329.637 167.078V174.929H360.623V195.094L359.434 192.122C357.293 187.332 354.882 183.88 352.191 181.776C349.494 179.666 346.872 178.609 344.303 178.609C342.716 178.609 341.236 178.963 339.862 179.666C338.487 180.37 337.276 181.321 336.24 182.532C335.204 183.748 334.374 185.181 333.766 186.851C333.152 188.522 332.846 190.341 332.846 192.323C332.846 196.188 333.702 198.958 335.415 200.629C337.123 202.3 339.264 203.13 341.828 203.13C342.991 203.13 344.118 202.982 345.222 202.675C346.317 202.369 347.295 201.94 348.151 201.39C349.013 200.841 349.711 200.169 350.266 199.381C350.816 198.583 351.086 197.732 351.086 196.812C350.837 192.852 348.305 190.113 343.478 188.57L342.193 188.173C342.928 187.999 343.753 187.914 344.673 187.914C349.436 187.914 354.353 190.727 359.429 196.352C360.65 197.716 361.834 199.196 363.003 200.804C364.155 202.411 365.26 204.15 366.296 206.043L367.401 208.084H368.496V174.935H373.354V167.083H329.626L329.637 167.078Z" fill="#3D6C89"/>
<path d="M369.236 167.078V174.929H393.619L372.445 182.839L374.46 195.295H374.645L377.119 195.564C378.404 195.696 380.011 196.014 381.935 196.516C383.86 197.023 385.874 197.764 387.984 198.726C390.093 199.693 392.229 200.931 394.402 202.443C396.57 203.965 398.573 205.842 400.403 208.078H401.497V174.929H406.356V167.078H369.231H369.236ZM393.619 200.037C391.478 197.573 389.527 195.834 387.756 194.824L385.102 193.312L393.625 189.553V200.037H393.619ZM388.951 201.554C387.666 200.634 386.138 200.169 384.362 200.169C382.586 200.169 380.968 200.634 379.688 201.554C378.404 202.474 377.764 203.595 377.764 204.917C377.764 206.239 378.404 207.291 379.688 208.211C380.968 209.136 382.527 209.596 384.362 209.596C386.197 209.596 387.661 209.141 388.951 208.211C390.23 207.291 390.876 206.196 390.876 204.917C390.876 203.637 390.23 202.474 388.951 201.554Z" fill="#3D6C89"/>
<path d="M407.09 167.078V179.401L405.996 174.923L404.071 167.072H402.237V174.923H404.071L407.09 186.719V202.802L413.873 208.073H414.978V174.923H419.832V167.072H407.09V167.078Z" fill="#3D6C89"/>
<path d="M447.06 167.078V176.769L446.875 176.51C441.99 170.229 436.946 167.083 431.749 167.083C429.486 167.083 427.546 167.427 425.928 168.109C424.305 168.786 422.978 169.637 421.942 170.647C421.022 171.54 420.318 172.524 419.827 173.608C419.763 173.75 419.705 173.893 419.642 174.036C419.525 174.337 419.42 174.638 419.335 174.929C419.05 175.849 418.912 176.732 418.912 177.567C418.912 179.148 419.383 180.417 420.334 181.39C421.281 182.357 422.365 182.839 423.586 182.839C424.384 182.839 425.145 182.675 425.88 182.342C426.61 182.014 427.408 181.845 428.259 181.845C428.989 181.845 429.877 182.088 430.914 182.569L422.486 186.259L430.824 196.077L446.87 187.845L447.055 187.782V202.94L453.838 208.078H454.943V174.929H459.796V167.078H447.055H447.06ZM432.949 181.316C432.579 179.957 431.141 178.9 428.635 178.16L430.834 176.177C432.669 174.861 434.477 174.2 436.243 174.2C438.326 174.2 440.372 175.125 442.386 176.97L432.944 181.316H432.949Z" fill="#3D6C89"/>
<path d="M455.683 167.078V174.929H478.961C476.64 175.146 474.562 175.606 472.728 176.314C470.893 177.012 469.334 177.858 468.054 178.852C466.769 179.836 465.791 180.893 465.12 182.019C464.448 183.135 464.11 184.176 464.11 185.144C464.11 186.027 464.358 186.793 464.845 187.454C465.337 188.115 465.96 188.659 466.722 189.104C467.483 189.542 468.371 189.865 469.376 190.087C470.386 190.309 471.411 190.42 472.448 190.42C473.426 190.42 474.372 190.314 475.287 190.119C476.207 189.923 477.031 189.622 477.766 189.23C478.496 188.834 479.077 188.337 479.506 187.745C479.929 187.158 480.145 186.487 480.145 185.736C480.145 184.948 479.86 184.255 479.278 183.663C478.697 183.071 477.978 182.553 477.127 182.12C476.265 181.675 475.366 181.321 474.42 181.062C473.473 180.803 472.633 180.623 471.903 180.533L470.433 180.338C471.596 179.809 473.056 179.55 474.832 179.55C476.117 179.55 477.417 179.693 478.728 179.973C480.045 180.259 481.266 180.692 482.398 181.258C483.534 181.834 484.491 182.521 485.29 183.341C486.088 184.15 486.543 185.08 486.664 186.138V186.201C486.664 188.046 484.311 189.542 479.606 190.684L480.7 192.662L483.73 191.805C484.153 191.673 484.618 191.604 485.105 191.604C486.447 191.604 487.119 191.985 487.119 192.725V192.857C486.997 193.212 486.691 193.555 486.199 193.883C485.707 194.211 485.131 194.528 484.46 194.835C483.788 195.147 483.027 195.395 482.17 195.596C481.314 195.792 480.463 195.913 479.606 195.955L477.317 196.088C475.234 196.088 473.14 195.839 471.036 195.332C468.926 194.829 467.139 194.047 465.675 192.995C464.396 192.07 463.386 190.912 462.656 189.532C461.921 188.147 461.371 186.735 461.007 185.286C460.642 183.832 460.404 182.474 460.314 181.194C460.224 179.92 460.177 178.91 460.177 178.165V177.044L458.897 177.107V178.953C458.897 180.142 458.955 181.813 459.082 183.959C459.198 186.116 459.526 188.4 460.039 190.817C460.562 193.238 461.313 195.601 462.286 197.901C463.264 200.211 464.639 202.109 466.415 203.606C468.308 205.192 470.428 206.334 472.781 207.037C475.133 207.735 477.438 208.089 479.701 208.089C481.964 208.089 483.963 207.814 485.702 207.27C487.447 206.72 488.879 205.985 490.016 205.06C491.142 204.14 491.999 203.077 492.58 201.861C493.162 200.656 493.447 199.397 493.447 198.07C493.447 196.743 493.093 195.384 492.395 193.952C491.692 192.524 490.545 191.155 488.959 189.833L490.973 187.459C491.703 186.624 492.226 185.757 492.533 184.858C492.839 183.959 493.024 183.071 493.083 182.188C493.083 181.353 492.887 180.507 492.49 179.651C492.094 178.789 491.481 178.012 490.656 177.308C489.826 176.605 488.779 176.034 487.489 175.59C486.395 175.246 485.136 175.024 483.73 174.94H496.292V167.089H455.683V167.078Z" fill="#3D6C89"/>
<path d="M497.021 167.078V179.401L495.927 174.923L494.003 167.072H492.168V174.923H494.003L497.021 186.719V202.802L503.805 208.073H504.91V174.923H509.763V167.072H497.021V167.078Z" fill="#3D6C89"/>
</svg>
