<?xml version="1.0" encoding="UTF-8"?>
<svg id="Layer_1" xmlns="http://www.w3.org/2000/svg" version="1.1" viewBox="0 0 382.03 132.25" fill="#181818">
  <!-- Generator: Adobe Illustrator 30.5.1, SVG Export Plug-In . SVG Version: 2.1.4 Build 3)  -->
  <g>
    <path d="M81.52,15.6c0,1.67-.32,3.23-.95,4.67-.64,1.45-1.5,2.71-2.6,3.79-1.1,1.08-2.38,1.93-3.85,2.57-1.47.64-3.04.96-4.71.96s-3.24-.32-4.71-.96c-1.47-.63-2.74-1.49-3.82-2.57-1.08-1.07-1.93-2.34-2.57-3.79-.64-1.45-.96-3.01-.96-4.67s.32-3.17.96-4.64c.63-1.47,1.49-2.74,2.57-3.82,1.07-1.08,2.35-1.93,3.82-2.57,1.47-.63,3.04-.95,4.71-.95s3.24.32,4.71.95c1.47.64,2.75,1.49,3.85,2.57,1.1,1.08,1.96,2.35,2.6,3.82.63,1.47.95,3.02.95,4.64ZM78.43,105.26h-18.1V34.76h18.1v70.5Z"/>
    <path d="M153.74,48.78l-13.17,13.23c-.66-1.84-1.56-3.5-2.7-4.97-1.14-1.47-2.42-2.71-3.85-3.72-1.43-1.01-2.97-1.78-4.64-2.3-1.67-.53-3.38-.79-5.13-.79-2.46,0-4.77.51-6.94,1.51s-4.06,2.42-5.66,4.25c-1.6,1.82-2.86,3.98-3.79,6.48s-1.38,5.27-1.38,8.29c0,2.46.46,4.76,1.38,6.91.92,2.15,2.18,4.04,3.79,5.66,1.6,1.62,3.49,2.9,5.66,3.82,2.17.92,4.49,1.38,6.94,1.38,1.76,0,3.45-.24,5.07-.72,1.62-.48,3.15-1.17,4.58-2.07,1.43-.9,2.7-2,3.82-3.29,1.12-1.29,2.03-2.73,2.73-4.31l13.17,13.23c-1.67,2.37-3.59,4.5-5.76,6.39-2.17,1.89-4.52,3.49-7.04,4.8-2.53,1.32-5.18,2.32-7.97,3-2.79.68-5.65,1.02-8.59,1.02-4.96,0-9.62-.93-13.99-2.8-4.37-1.86-8.19-4.42-11.45-7.67-3.27-3.25-5.85-7.04-7.73-11.39-1.89-4.34-2.83-9-2.83-13.96,0-5.4.94-10.44,2.83-15.14,1.89-4.7,4.46-8.79,7.73-12.28,3.27-3.49,7.09-6.24,11.45-8.26,4.37-2.02,9.03-3.03,13.99-3.03,2.94,0,5.83.37,8.66,1.12,2.83.75,5.53,1.83,8.1,3.26,2.57,1.43,4.94,3.17,7.11,5.23,2.17,2.06,4.05,4.43,5.63,7.11Z"/>
    <path d="M256.37,15.6c0,1.67-.32,3.23-.96,4.67-.64,1.45-1.5,2.71-2.6,3.79-1.1,1.08-2.38,1.93-3.85,2.57-1.47.64-3.04.96-4.71.96s-3.24-.32-4.71-.96c-1.47-.63-2.74-1.49-3.82-2.57-1.08-1.07-1.93-2.34-2.57-3.79-.64-1.45-.95-3.01-.95-4.67s.32-3.17.95-4.64c.64-1.47,1.49-2.74,2.57-3.82,1.08-1.08,2.35-1.93,3.82-2.57,1.47-.63,3.04-.95,4.71-.95s3.24.32,4.71.95c1.47.64,2.75,1.49,3.85,2.57,1.1,1.08,1.96,2.35,2.6,3.82.64,1.47.96,3.02.96,4.64ZM253.27,105.26h-18.1V34.76h18.1v70.5Z"/>
    <path d="M289.81,105.26h-17.97v-52.6h-8.76v-17.91h8.76v-3.36c0-4.34.82-8.43,2.47-12.24,1.65-3.82,3.91-7.14,6.78-9.97,2.87-2.83,6.22-5.07,10.04-6.71,3.82-1.65,7.9-2.47,12.24-2.47h13.49v17.91h-13.49c-1.93,0-3.72.34-5.36,1.02-1.65.68-3.07,1.62-4.28,2.83-1.21,1.21-2.16,2.63-2.86,4.28-.7,1.65-1.05,3.44-1.05,5.36v3.36h22.05v17.91h-22.05v52.6Z"/>
    <path d="M336.81,132.12v-18.1l10.01.13c1.76,0,3.45-.29,5.07-.86,1.62-.57,3.13-1.36,4.51-2.37,1.38-1.01,2.6-2.21,3.65-3.59,1.05-1.38,1.91-2.89,2.57-4.51-1.97.83-3.98,1.67-6.02,2.5-2.04.83-4.09,1.25-6.15,1.25-4.34,0-8.43-.77-12.24-2.3-3.82-1.53-7.17-3.72-10.04-6.55-2.88-2.83-5.13-6.28-6.78-10.34-1.65-4.06-2.47-8.61-2.47-13.66v-38.97h17.91v38.97c0,2.5.36,4.68,1.09,6.55.72,1.87,1.7,3.42,2.93,4.67,1.23,1.25,2.67,2.18,4.31,2.8,1.65.62,3.41.92,5.3.92s3.59-.43,5.23-1.28c1.65-.86,3.08-1.98,4.31-3.39,1.23-1.4,2.19-3,2.9-4.77.7-1.78,1.05-3.61,1.05-5.5v-38.97h18.1v61.62c-.05,4.96-1.01,9.61-2.9,13.95-1.89,4.35-4.47,8.14-7.73,11.39-3.27,3.25-7.08,5.81-11.42,7.7-4.34,1.89-9,2.83-13.96,2.83l-9.22-.13Z"/>
    <path d="M196.74,70.07l25.63-35.19h-20.65l-21.13,30.84V6.73h-18.09v98.53h18.09v-31.05l22.52,31.05h19.95l-26.33-35.19Z"/>
  </g>
  <path fill="#a9dd36" d="M37.4,104.87c-4.03,0-7.82-.81-11.37-2.43-3.54-1.62-6.65-3.85-9.32-6.69-2.67-2.83-4.77-6.14-6.3-9.9-1.53-3.77-2.29-7.79-2.29-12.08v-20.65H0v-17.66c6.85.04,13.71.08,20.56.12-4.15-1.54-8.29-3.08-12.44-4.61V7.67h4.19c.54,2,2.29,3.35,4.2,3.27,1.79-.08,3.36-1.4,3.86-3.27h4.37v27.79h25.3v5.22c-1.51.48-2.6,1.83-2.76,3.4-.19,1.85.95,3.68,2.76,4.28v4.76h-25.3v20.65c0,1.86.33,3.6.98,5.23.65,1.62,1.55,3.04,2.69,4.25,1.14,1.21,2.48,2.18,4.03,2.89,1.55.71,3.2,1.07,4.95,1.07h12.65v17.66h-12.65Z"/>
</svg>