<?xml version="1.0" encoding="UTF-8"?>
<svg id="Layer_1" xmlns="http://www.w3.org/2000/svg" version="1.1" viewBox="0 0 200 62.59">
  <!-- Generator: Adobe Illustrator 30.5.1, SVG Export Plug-In . SVG Version: 2.1.4 Build 3)  -->
  <defs>
    <style>
      .st0 {
        fill: #ea0016;
      }

      .st1 {
        fill: #131313;
      }
    </style>
  </defs>
  <path class="st0" d="M19.49,24.56c-.26,1.12-.43,1.67-.51,1.67-.69.69-1.34,1.39-1.96,2.12l-1.45.48c.81,1.07,1.64,2.41,2.48,4.02.77.79,1.18,1.32,1.22,1.58l1.93,3.38c-.82.26-1.48.39-1.99.39l-.8.1c-.77-.06-2.22-.14-4.34-.22l-1.51-.23c-.71-1.61-1.4-2.91-2.09-3.89-.62-1.01-1.29-2.33-1.99-3.96h-.03l-.19,1.61.06,1.58-.1,1.58.16,1.58-.06,1.51c-.71.13-1.67.23-2.9.29-1.27,0-2.59-.1-3.96-.29l-.35-.1c-.09-.45-.15-1.2-.19-2.25,0-.54-.04-1.31-.13-2.32l.16-6.18.03-.1-.13-1.61.16-1.54c-.11-1.03-.16-1.67-.16-1.93v-2.57c0-1.14.11-2.24.32-3.31.41,0,1.45-.14,3.12-.42.84.13,1.89.21,3.15.26l1.64-.23,1.58.45h.48c1.76,0,3.09.06,3.99.19.86.34,1.33.54,1.42.58.94.82,1.51,1.4,1.7,1.77.3.34.62.89.96,1.64l.23,1.42-.06,1.42h-.03v.03l.16,1.51h0ZM11.64,21.73h-1.22l-2.16-.06h-.13v.03l-.13,1.67.23,1.77,1.42.1,1.77-.55.9-1.38-.68-1.58h0ZM38.98,37.88l-1.45.32-4.63-.1-1.99.06h-.74l-2.03.13c-2.4-.09-3.6-.17-3.6-.26-.79-.17-1.19-.28-1.19-.32-.11-1.37-.16-2.58-.16-3.64v-.03c0-1.22.07-2.57.22-4.05l-.16-1.54.03-1.54-.1-1.61c.17-2.4.26-3.88.26-4.44l-.13-1.83c0-1.27.1-2.33.29-3.19l1.29-.23,1.38.03h.26c.94,0,1.94-.04,2.99-.13l1.48.13,1.54-.13,3.02.26,1.54-.19,1.45.35.32,1.45-.42,4.41c0,.11-.02.16-.06.16l-1.45.06c-1.22-.17-2.31-.26-3.25-.26s-2.01.1-3.25.29l.06,1.87.1-.03h1.42l2.96.06,1.96-.06h1.06l.03.03v.03c0,.92.1,2.17.29,3.73l.06.58c-.21.96-.35,1.45-.42,1.45l-.23.03h-.64c-.92,0-1.62-.02-2.09-.06l-1.54.16c-1.03,0-2.09-.08-3.19-.23v2.06h.03c1.14,0,2.13.08,2.99.23l1.45-.06,1.45.13,2.86-.29c.06.56.1,1.17.1,1.83v1c0,.19.08.82.23,1.87-.24.99-.38,1.49-.42,1.51h0ZM57.06,21.24c-.71.75-1.33,1.31-1.87,1.67l-.19.16c-1.5-1.2-2.39-1.8-2.67-1.8l-1.32-.13c-.79.15-1.19.24-1.19.26l-.71.84c1.48,1.01,2.24,1.51,2.28,1.51,1.31.26,2.41.54,3.31.84,1.01.47,1.53.76,1.58.87.88.73,1.6,1.47,2.16,2.22l.58,1.45v1.48c-.21,2.4-.4,3.6-.55,3.6,0,.15-.45.98-1.35,2.48-1.87,1.18-3.01,1.79-3.44,1.83-.41.17-1.09.3-2.06.39l-.35.03-2.06-.1h-2.19c-1.42-.13-2.12-.26-2.12-.39l-2.61-1.09c-.71-.47-1.22-.9-1.54-1.29-.37-.36-.55-.58-.55-.64.64-.9,1.02-1.39,1.13-1.48.79-.6,1.25-.98,1.38-1.13.43-.75.8-1.27,1.13-1.54.58-.54.9-.8.96-.8,1.01.84,1.91,1.44,2.7,1.8.13.17.57.26,1.32.26l.87.03,1.71-1.03c-.69-.75-1.07-1.13-1.16-1.13-.96-.36-1.93-.77-2.9-1.22-1.07-.19-1.66-.34-1.77-.45-.56-.39-1.39-.92-2.51-1.61-.75-1.05-1.13-1.65-1.13-1.8-.26-.6-.39-.93-.39-1,.13-1.18.19-2.21.19-3.09.24-1.14.51-2.06.84-2.77,0-.13.4-.58,1.19-1.35.9-.81,1.47-1.22,1.71-1.22.58-.32,1.39-.63,2.45-.93l1.58-.1,1.54.19,1.61-.1c.99.17,2.07.32,3.25.45,1.01.47,1.57.76,1.67.87.62.47,1.13.92,1.51,1.35l.55.64v.03l-2.57,2.93h0ZM69.58,33.08l-.19,1.64.16,1.58c-.09,1.03-.16,1.54-.23,1.54-.9.24-1.4.35-1.51.35h-1.09l-1.83.1c-1.05,0-1.98-.14-2.8-.42l-.23-1.58.16-1.61c-.06-1.14-.15-2.18-.26-3.12l.16-1.58-.06-1.58.06-1.51-.06-1.58.13-3.12-.13-1.58v-.39c0-1.42.09-2.86.26-4.34,1.42-.26,2.35-.39,2.8-.39,2.25.06,3.38.13,3.38.19.79.17,1.19.28,1.19.32l.06,1.74-.16,3.89v.39l.1,1.74c-.09,1.12-.13,2.02-.13,2.7,0,1.27.08,3.31.23,6.14v.45h0ZM88.24,21.24c-.71.75-1.33,1.31-1.87,1.67l-.19.16c-1.5-1.2-2.39-1.8-2.67-1.8l-1.32-.13c-.79.15-1.19.24-1.19.26l-.71.84c1.48,1.01,2.24,1.51,2.28,1.51,1.31.26,2.41.54,3.31.84,1.01.47,1.53.76,1.58.87.88.73,1.6,1.47,2.16,2.22l.58,1.45v1.48c-.21,2.4-.4,3.6-.55,3.6,0,.15-.45.98-1.35,2.48-1.87,1.18-3.01,1.79-3.44,1.83-.41.17-1.09.3-2.06.39l-.35.03-2.06-.1h-2.19c-1.42-.13-2.12-.26-2.12-.39l-2.61-1.09c-.71-.47-1.22-.9-1.54-1.29-.37-.36-.55-.58-.55-.64.64-.9,1.02-1.39,1.13-1.48.79-.6,1.25-.98,1.38-1.13.43-.75.8-1.27,1.13-1.54.58-.54.9-.8.97-.8,1.01.84,1.91,1.44,2.7,1.8.13.17.57.26,1.32.26l.87.03,1.71-1.03c-.69-.75-1.07-1.13-1.16-1.13-.97-.36-1.93-.77-2.9-1.22-1.07-.19-1.66-.34-1.77-.45-.56-.39-1.39-.92-2.51-1.61-.75-1.05-1.13-1.65-1.13-1.8-.26-.6-.39-.93-.39-1,.13-1.18.19-2.21.19-3.09.24-1.14.51-2.06.84-2.77,0-.13.4-.58,1.19-1.35.9-.81,1.47-1.22,1.71-1.22.58-.32,1.39-.63,2.45-.93l1.58-.1,1.54.19,1.61-.1c.99.17,2.07.32,3.25.45,1.01.47,1.57.76,1.67.87.62.47,1.13.92,1.51,1.35l.55.64v.03l-2.57,2.93h0ZM109.79,20.18c-.04,1.31-.11,1.96-.19,1.96l-1.25-.22-1.8.1h-1.54l-.8.03c.19,1.33.29,2.39.29,3.19l-.13,1.58c.04,1.95.1,3.6.16,4.95v.68c0,.6-.11,1.34-.32,2.22l.13,1.58-.16,1.61c-.99.09-1.93.24-2.83.45-.96-.15-1.58-.22-1.83-.22h-1.06c-.99-.13-1.48-.23-1.48-.29v-.64c0-.66-.05-1.48-.16-2.45l.13-1.58-.13-1.58.16-1.58-.32-1.58.13-1.58-.06-1.58c.04-1.27.11-2.29.19-3.09l-4.05-.22-1.25.1v-.03l-.42-1.42c.06-1.22.1-2.26.1-3.12.15-1.05.26-1.58.32-1.58l1.42-.32,2.96.13.03.03h.03l1.54-.13,1.54.13,6.05-.19,1.67.19,1.32-.03c1.05.17,1.58.27,1.58.29l.1,1.29-.03,2.93h0ZM157.73,28.87v.58l.03,2.12.03.03v.03c-.19.94-.29,2.19-.29,3.73v.77c-.09,1.22-.16,1.83-.23,1.83-1.03.17-1.97.26-2.81.26l-.29-.03h-.87c-.88,0-2.04-.11-3.48-.32-.37-.86-.79-1.54-1.26-2.06-.21-.24-.53-.88-.94-1.93-.97-1.56-1.74-2.9-2.32-3.99-.56-.77-1.05-1.55-1.48-2.35l-.1-.06v.03l.06,1.38-.16,1.51c.24,2.34.35,3.83.35,4.47l-.19,1.54.32,1.45c-.88.28-1.82.42-2.83.42l-2.93-.06c-.79-.21-1.23-.34-1.32-.39-.09-1.12-.19-2.13-.32-3.06l.03-1.58.03-.03-.03-.13v-.77l.1-2.19.03-.03-.03-.13v-1.13c0-.19-.08-.81-.23-1.87l.16-4.99c.09,0,.16-1.71.22-5.12.02,0,.03-.29.03-.87l2.9-.35,3.28.19,1.13.22c.49.88,1.09,1.77,1.8,2.67.86,1.93,1.36,2.98,1.51,3.15.73.86,1.52,2.17,2.38,3.93.34.9.54,1.36.58,1.38.06-.06.16-.56.29-1.48v-.19l-.19-1.58v-1.35l-.06-1.83.06-1.48v-.1l-.19-3.12s.43-.18,1.29-.42l1.42.13,1.45-.23c1.1,0,1.84.1,2.23.29.34.06.52.15.52.26.11,1.12.16,2.19.16,3.22v1.42c.09.84.17,2.49.26,4.95v.55l-.13,2.67h0ZM178.22,22.5l-1.06,1.29h-.03c-.45-.84-.71-1.25-.77-1.25-.64-.19-1.13-.32-1.45-.39-.79,0-1.79.08-2.99.23l-1.32.55-1,1.09-.51,1.38.03,1.58-.06,1.48c.47.84,1.01,1.69,1.61,2.57.96.36,1.51.55,1.64.55,1.09.09,1.99.17,2.7.26.84-.51,1.3-.83,1.38-.93l.74-1.03c.99.9,1.54,1.53,1.67,1.9.13.21.66.82,1.61,1.8.56.66,1.06,1.32,1.51,1.96-.58.79-.96,1.28-1.16,1.45-.9.67-1.43,1-1.58,1-.75.32-1.72.61-2.9.87h-1.06l-2.09.06-.03.03h-.03l-1.61-.16-1.42.03h-.16c-.92-.21-1.52-.4-1.8-.55l-2.9-1.42c-.79-.66-1.24-1.06-1.35-1.19-.58-.73-1.03-1.39-1.35-1.99l-1.16-1.9c-.24-.96-.35-1.76-.35-2.38,0-.45-.08-1.25-.22-2.41,0-1.61.21-3.29.64-5.05.39-.92.85-1.77,1.38-2.54.04-.13.5-.62,1.38-1.48.84-.73,1.33-1.1,1.48-1.13.56-.24,1.44-.63,2.64-1.19,2.04-.47,3.11-.71,3.22-.71h2.99c1.37.13,2.22.25,2.54.35.64.15,1.19.35,1.64.61,1.48.71,2.23,1.1,2.25,1.19l.93,1.09v.1c-.51.77-1.12,1.57-1.8,2.38-.75.62-1.36,1.25-1.83,1.9h0ZM199.58,37.88l-1.45.32-4.63-.1-1.99.06h-.74l-2.03.13c-2.4-.09-3.6-.17-3.6-.26-.79-.17-1.19-.28-1.19-.32-.11-1.37-.16-2.58-.16-3.64v-.03c0-1.22.08-2.57.23-4.05l-.16-1.54.03-1.54-.1-1.61c.17-2.4.26-3.88.26-4.44l-.13-1.83c0-1.27.1-2.33.29-3.19l1.29-.23,1.38.03h.26c.94,0,1.94-.04,2.99-.13l1.48.13,1.54-.13,3.02.26,1.54-.19,1.45.35.32,1.45-.42,4.41c0,.11-.02.16-.06.16l-1.45.06c-1.22-.17-2.31-.26-3.25-.26s-2.01.1-3.25.29l.06,1.87.1-.03h1.42l2.96.06,1.96-.06h1.06l.03.03v.03c0,.92.1,2.17.29,3.73l.06.58c-.21.96-.35,1.45-.42,1.45l-.22.03h-.64c-.92,0-1.62-.02-2.09-.06l-1.54.16c-1.03,0-2.09-.08-3.18-.23v2.06h.03c1.14,0,2.13.08,2.99.23l1.45-.06,1.45.13,2.86-.29c.06.56.1,1.17.1,1.83v1c0,.19.07.82.23,1.87-.24.99-.38,1.49-.42,1.51h0Z"/>
  <path class="st1" d="M16.06,47.48l-.98,1.18h-.03c-.41-.77-.65-1.15-.71-1.15-.59-.18-1.04-.3-1.33-.36-.73,0-1.65.07-2.75.21l-1.21.5-.92,1.01-.47,1.27.03,1.45-.06,1.36c.43.77.93,1.56,1.48,2.37.89.34,1.39.5,1.51.5,1.01.08,1.83.16,2.48.24.77-.47,1.19-.76,1.27-.86l.68-.95c.91.83,1.42,1.41,1.54,1.74.12.2.61.75,1.48,1.66.51.61.98,1.21,1.39,1.8-.53.73-.89,1.17-1.07,1.33-.83.61-1.31.92-1.45.92-.69.3-1.58.56-2.66.8h-.98l-1.92.06-.03.03h-.03l-1.48-.15-1.3.03h-.15c-.85-.2-1.4-.37-1.66-.5l-2.66-1.3c-.73-.61-1.14-.98-1.24-1.09-.53-.67-.95-1.28-1.24-1.83l-1.07-1.75c-.22-.89-.33-1.62-.33-2.19,0-.41-.07-1.15-.21-2.22,0-1.48.2-3.03.59-4.64.35-.85.78-1.63,1.27-2.34.04-.12.46-.57,1.27-1.36.77-.67,1.22-1.02,1.36-1.04.51-.22,1.32-.58,2.43-1.09,1.87-.43,2.86-.65,2.96-.65h2.75c1.26.12,2.04.23,2.34.33.59.14,1.09.33,1.51.56,1.36.65,2.05,1.02,2.07,1.09l.86,1.01v.09c-.47.71-1.03,1.44-1.66,2.19-.69.57-1.25,1.15-1.69,1.75h0ZM28.63,57.21l-.18,1.51.15,1.45c-.08.95-.15,1.42-.21,1.42-.83.22-1.29.33-1.39.33h-1.01l-1.69.09c-.97,0-1.82-.13-2.57-.38l-.21-1.45.15-1.48c-.06-1.05-.14-2-.24-2.87l.15-1.45-.06-1.45.06-1.39-.06-1.45.12-2.87-.12-1.45v-.36c0-1.3.08-2.63.24-3.99,1.3-.24,2.16-.36,2.57-.36,2.07.06,3.11.12,3.11.18.73.16,1.09.26,1.09.3l.06,1.6-.15,3.58v.36l.09,1.6c-.08,1.03-.12,1.85-.12,2.48,0,1.16.07,3.05.21,5.65v.41h0ZM51.91,53.34v.53l.03,1.95.03.03v.03c-.18.87-.27,2.01-.27,3.43v.71c-.08,1.12-.15,1.69-.21,1.69-.95.16-1.81.24-2.58.24l-.27-.03h-.8c-.81,0-1.88-.1-3.2-.3-.34-.79-.72-1.42-1.16-1.89-.2-.22-.48-.81-.86-1.77-.89-1.44-1.6-2.66-2.13-3.67-.51-.71-.97-1.43-1.36-2.16l-.09-.06v.03l.06,1.27-.15,1.39c.22,2.15.33,3.52.33,4.11l-.18,1.42.3,1.33c-.81.26-1.68.38-2.6.38l-2.69-.06c-.73-.2-1.13-.32-1.21-.36-.08-1.03-.18-1.96-.3-2.81l.03-1.45.03-.03-.03-.12v-.71l.09-2.01.03-.03-.03-.12v-1.04c0-.18-.07-.75-.21-1.72l.15-4.58c.08,0,.15-1.57.21-4.7.02,0,.03-.27.03-.8l2.66-.32,3.02.18,1.04.21c.45.81,1.01,1.63,1.66,2.45.79,1.77,1.25,2.74,1.39,2.9.67.79,1.4,1.99,2.19,3.61.32.83.49,1.25.53,1.27.06-.06.15-.51.27-1.36v-.18l-.18-1.45v-1.24l-.06-1.69.06-1.36v-.09l-.18-2.87s.4-.17,1.19-.38l1.31.12,1.34-.21c1.01,0,1.69.09,2.05.27.32.06.48.14.48.24.1,1.03.15,2.01.15,2.96v1.3c.08.77.16,2.29.24,4.55v.5l-.12,2.46h0ZM70.39,61.62l-1.33.3-4.26-.09-1.83.06h-.68l-1.86.12c-2.21-.08-3.31-.16-3.31-.24-.73-.16-1.09-.26-1.09-.3-.1-1.26-.15-2.38-.15-3.34v-.03c0-1.12.07-2.37.21-3.73l-.15-1.42.03-1.42-.09-1.48c.16-2.21.24-3.57.24-4.08l-.12-1.69c0-1.16.09-2.14.27-2.93l1.18-.21,1.27.03h.24c.87,0,1.78-.04,2.75-.12l1.36.12,1.42-.12,2.78.24,1.42-.18,1.33.32.3,1.33-.38,4.05c0,.1-.02.15-.06.15l-1.33.06c-1.12-.16-2.12-.24-2.99-.24s-1.84.09-2.99.27l.06,1.72.09-.03h1.3l2.72.06,1.8-.06h.98l.03.03v.03c0,.85.09,1.99.27,3.43l.06.53c-.2.89-.33,1.33-.38,1.33l-.21.03h-.59c-.85,0-1.49-.02-1.92-.06l-1.42.15c-.95,0-1.92-.07-2.93-.21v1.89h.03c1.04,0,1.96.07,2.75.21l1.33-.06,1.33.12,2.63-.27c.06.51.09,1.08.09,1.69v.92c0,.18.07.75.21,1.72-.22.91-.35,1.37-.38,1.39h0ZM99.38,51.53l.24,1.48-.24,1.42.15,1.42c0,.61-.09,1.67-.27,3.16l-.12,2.48c0,.08-.28.19-.83.33-.16.12-.75.18-1.78.18-.75-.18-1.53-.27-2.32-.27-.38,0-.92-.06-1.63-.18v-.03c.12-.85.18-1.38.18-1.6v-.12c0-.61.03-1.43.09-2.46l-.06-1.39c0-.59.05-1.54.15-2.84-.14-.91-.21-1.45-.21-1.63v-1.18c-.1,0-.25.35-.44,1.06-.43,1.1-.78,2.18-1.04,3.22-.18,1.07-.38,1.9-.62,2.51l-.8,1.77c-.28.97-.53,1.65-.77,2.04-.22.45-.34.68-.38.68-1.01.1-2.03.18-3.08.24-1.05-.16-1.57-.26-1.57-.3-.32-.91-.66-1.85-1.04-2.84-.22-.95-.41-1.56-.59-1.83-.39-.69-.61-1.22-.65-1.6-.16-.41-.37-1.26-.65-2.54-.47-1.66-.73-2.48-.77-2.48-.1.04-.15.21-.15.5l-.06.92.15,1.39c0,.73-.06,1.69-.18,2.87.06,1.05.14,1.99.24,2.84l-.06,1.48c.24.83.35,1.29.35,1.39l-1.33.24-1.3-.12c-1.26.16-2.14.24-2.63.24l-1.21-.53c-.12-.59-.18-1.63-.18-3.11v-.83c0-.24-.06-.79-.18-1.66l.21-1.45-.18-1.45.06-1.42-.12-1.45.15-4.61.18-1.15-.21-1.45c.26-.99.4-1.48.44-1.48,1.44-.2,2.88-.3,4.32-.3l1.45.24,1.54-.21c.93.24,1.39.38,1.39.44.43.95.65,1.53.65,1.75.14.63.3,1.08.47,1.36.32.55.47,1,.47,1.33.08.73.18,1.15.3,1.27.4.81.59,1.35.59,1.63.12.55.29.97.5,1.24.3.53.48,1.01.56,1.42l.18.62h.06c.55-1.26.97-2.5,1.24-3.73l.5-1.69c.16-.95.41-1.91.74-2.9.36-.79.53-1.49.53-2.1l.06-.36c1.93-.26,3.31-.38,4.12-.38h.5l1.78.3,2.72.06s.16,1.08.36,3.22v.41l.06,2.16-.06,1.45.06,1.45-.06,1.42h0ZM121.86,61.97l-.06.03-4.55-.27c-.06-.1-.21-.66-.44-1.69l-.56-1.36-1.3.24-1.3-.09-2.6.15-1.27-.3c-.28,1.14-.57,2.16-.89,3.05l-.03.03c-1.2.1-2.61.15-4.23.15h-1.69l-1.45-.33v-.03c.45-1.14,1.03-2.71,1.72-4.7.53-1.22.94-2.37,1.21-3.43.41-.81.86-1.87,1.33-3.19.22-.47.5-1.25.86-2.34l1.33-2.6.92-2.69.74-1.21c1.24-.16,2.19-.24,2.84-.24l1.45.09,1.51-.18c.97.2,1.45.34,1.45.41l1.24,2.63c.24.97.47,1.65.71,2.04.18.38.44,1.08.8,2.13.57.99,1.05,2,1.45,3.05l1.39,3.67c.22.89.49,1.68.83,2.37.1.16.27.73.5,1.72.49.89.74,1.55.74,1.98l.15.68c-.65.16-1.58.24-2.78.24h0ZM114.08,51.38c0-.22-.24-.88-.71-1.98l-.3-.86h-.03c-.34.69-.61,1.45-.83,2.28-.39.93-.59,1.46-.59,1.6l-.15,1.09h.03l1.42.03,1.77-.09c-.3-.71-.5-1.4-.62-2.07h0ZM145.07,47.09l-2.72-.09-1.39.09-1.42-.06-1.33.06.03,1.09-.03,1.01h.03l1.57-.15h3.05c.99.14,1.48.24,1.48.3l.21,1.24c-.06.91-.1,1.94-.12,3.11l-.12,1.04h-1.21l-1.89.18h-1.33c-.24,0-.76-.05-1.57-.15-.04.61-.07,1.69-.09,3.22-.06.32-.09.71-.09,1.18v2.37c0,.06-.68.19-2.03.38-.26.04-.89.07-1.91.09-1.04-.04-1.67-.12-1.88-.24-.53-.14-.79-.23-.79-.27l.06-1.36-.12-1.63.03-3.9.03-.21-.03-.3v-.92c0-.14-.09-.7-.27-1.69l.15-1.51-.03-1.42.15-1.39-.06-1.45.03-1.04c0-.59-.03-1.21-.09-1.86l.21-1.39c1-.18,1.88-.31,2.65-.38,1.04.08,1.9.12,2.59.12l.15.03,1.41-.06c1.06.08,2.1.12,3.11.12l2.37-.09c.91.18,1.36.29,1.36.33v.92l.12,2.63v.33c-.1,1.14-.18,1.72-.24,1.72h0ZM162.91,61.62l-1.33.3-4.26-.09-1.83.06h-.68l-1.86.12c-2.21-.08-3.31-.16-3.31-.24-.73-.16-1.09-.26-1.09-.3-.1-1.26-.15-2.38-.15-3.34v-.03c0-1.12.07-2.37.21-3.73l-.15-1.42.03-1.42-.09-1.48c.16-2.21.24-3.57.24-4.08l-.12-1.69c0-1.16.09-2.14.27-2.93l1.18-.21,1.27.03h.24c.87,0,1.78-.04,2.75-.12l1.36.12,1.42-.12,2.78.24,1.42-.18,1.33.32.3,1.33-.38,4.05c0,.1-.02.15-.06.15l-1.33.06c-1.12-.16-2.12-.24-2.99-.24s-1.84.09-2.99.27l.06,1.72.09-.03h1.3l2.72.06,1.8-.06h.98l.03.03v.03c0,.85.09,1.99.27,3.43l.06.53c-.2.89-.33,1.33-.38,1.33l-.21.03h-.59c-.85,0-1.49-.02-1.92-.06l-1.42.15c-.95,0-1.92-.07-2.93-.21v1.89h.03c1.05,0,1.96.07,2.75.21l1.33-.06,1.33.12,2.63-.27c.06.51.09,1.08.09,1.69v.92c0,.18.07.75.21,1.72-.22.91-.35,1.37-.38,1.39h0ZM179.83,46.33c-.65.69-1.22,1.2-1.72,1.54l-.18.15c-1.38-1.1-2.2-1.66-2.45-1.66l-1.21-.12c-.73.14-1.09.22-1.09.24l-.65.77c1.36.93,2.06,1.39,2.1,1.39,1.2.24,2.22.49,3.05.77.93.43,1.41.7,1.45.8.81.67,1.47,1.35,1.98,2.04l.53,1.33v1.36c-.2,2.21-.37,3.31-.5,3.31,0,.14-.41.9-1.24,2.28-1.72,1.08-2.77,1.65-3.16,1.69-.38.16-1.01.28-1.89.36l-.32.03-1.89-.09h-2.01c-1.3-.12-1.95-.24-1.95-.36l-2.4-1.01c-.65-.43-1.12-.83-1.42-1.18-.34-.34-.5-.53-.5-.59.59-.83.94-1.28,1.04-1.36.73-.55,1.15-.9,1.27-1.04.39-.69.74-1.16,1.04-1.42.53-.49.83-.74.89-.74.93.77,1.76,1.32,2.48,1.66.12.16.52.24,1.21.24l.8.03,1.57-.95c-.63-.69-.99-1.04-1.06-1.04-.89-.33-1.77-.71-2.66-1.12-.99-.18-1.53-.31-1.63-.41-.51-.36-1.28-.85-2.31-1.48-.69-.97-1.04-1.52-1.04-1.66-.24-.55-.36-.86-.36-.92.12-1.08.18-2.03.18-2.84.22-1.05.47-1.89.77-2.54,0-.12.36-.53,1.09-1.24.83-.75,1.35-1.12,1.57-1.12.53-.3,1.28-.58,2.25-.86l1.45-.09,1.42.18,1.48-.09c.91.16,1.9.3,2.99.41.93.43,1.44.7,1.54.8.57.43,1.04.85,1.39,1.24l.5.59v.03l-2.37,2.69h0ZM199.94,45.35c-.04,1.2-.1,1.8-.18,1.8l-1.15-.21-1.66.09h-1.42l-.74.03c.18,1.22.27,2.2.27,2.93l-.12,1.45c.04,1.79.09,3.31.15,4.55v.62c0,.55-.1,1.23-.3,2.04l.12,1.45-.15,1.48c-.91.08-1.77.22-2.6.41-.89-.14-1.45-.21-1.69-.21h-.98c-.91-.12-1.36-.21-1.36-.27v-.59c0-.61-.05-1.36-.15-2.25l.12-1.45-.12-1.45.15-1.45-.3-1.45.12-1.45-.06-1.45c.04-1.16.1-2.11.18-2.84l-3.73-.21-1.15.09v-.03l-.38-1.3c.06-1.12.09-2.08.09-2.87.14-.97.24-1.45.3-1.45l1.3-.3,2.72.12.03.03h.03l1.42-.12,1.42.12,5.56-.18,1.54.18,1.21-.03c.97.16,1.45.25,1.45.27l.09,1.18-.03,2.69h0Z"/>
  <path class="st1" d="M132.5,34.26l-.02-1.04c0-.1-.12-.58-.36-1.44,0-.06-.49-.12-1.48-.19l-.93.11c-.04-.13-.08-.27-.12-.39-.22-.96-.43-1.8-.65-2.52-.32-.81-.66-2.06-1-3.74-.31-.99-.6-1.81-.88-2.44-.46-1.81-.85-3.04-1.16-3.69-.14-.53-.35-1.18-.6-1.93l2.43.06,1.1-.06s.09-.25.19-.75c.04,0,.07-.71.09-2.13,0-.28-.09-.87-.27-1.76-.83-.08-1.63-.12-2.43-.12l.76-.67c.41-.38.65-.65.73-.82.16-.18.37-.57.64-1.18.16-.56.29-1.19.4-1.91l-.13-2.03v-.73c0-.07-.1-.3-.29-.69-.31-.76-.5-1.18-.56-1.25-.19-.34-.5-.73-.93-1.16-.07-.1-.44-.37-1.11-.82-.38-.3-.62-.45-.74-.45-.45-.17-.82-.25-1.13-.25-.27-.04-.76-.12-1.47-.25h-.65l-1.33.05h-.64l-1.25.35c-.44.12-.81.27-1.13.45-.22.07-.38.19-.49.36-.39.41-.73.71-1.03.91-.11.05-.3.3-.58.74-.1.07-.19.33-.27.78,0,.06-.15.46-.44,1.2l-.02.84.04,1-.05.93.27,1.78s.27.58.82,1.62c0,.05.21.31.64.78l.91.64c-.13.01-.25.02-.38.03l-1.02-.09-.99.16c-.17.52-.25,1.11-.24,1.77l.08,1.16v.69c.01.07.09.39.25.95,0,.04.33.08.98.13l.99-.12.98.1c-.1.38-.19.65-.27.78-.25.38-.52,1.26-.83,2.63,0,.25-.18.75-.53,1.49-.09,0-.19.41-.3,1.22,0,.2-.19.7-.56,1.49-.25.99-.47,1.71-.67,2.14-.56,1.72-.89,2.98-1,3.8,0,.18-.14.55-.4,1.11h-.48s-1.66.08-1.66.08c-.04,0-.14.38-.29,1.14-.06,0-.11,1.08-.13,3.23,0,.43.14,1.32.41,2.66,1.41.14,2.8.2,4.15.18h.37s1.5-.15,1.5-.15l2.98.08,1.5-.08,1.44.04,1.5-.09,1.51.13c.9-.12,1.89-.21,2.97-.29l1.54.13,1.5-.24c.25-.78.37-1.67.36-2.68l-.12-1.75ZM118.07,2.6c.15-.26.26-.42.31-.46l.46-.27.58-.02c.4.05.59.08.59.1.26.17.45.33.58.48.15.15.22.24.22.26l.03.56c-.06.42-.1.63-.13.63-.15.3-.24.45-.27.45-.34.2-.59.3-.74.3l-.27.07c-.41-.02-.62-.04-.62-.07-.31-.24-.57-.49-.79-.75l-.03-.04-.02-.58c.03-.43.06-.65.1-.65ZM117.88,8.58l-.05.02-.57-.11c-.41-.12-.62-.2-.61-.24-.22-.21-.35-.34-.38-.4l-.16-.51.11-.57c.14-.37.21-.56.23-.56.22-.21.42-.37.6-.46.18-.11.28-.16.31-.16l.55.09c.39.15.59.24.58.27.26.21.39.33.38.37.12.38.16.64.13.78v.28c-.11.4-.18.59-.2.59-.3.25-.61.45-.9.61ZM121.24,10.64c-.08.32-.14.49-.18.5-.3.26-.52.41-.66.44l-.26.12c-.41.06-.61.08-.62.06-.35-.17-.66-.36-.93-.57l-.04-.04-.14-.57c-.06-.43-.07-.65-.03-.65.1-.29.17-.46.21-.51l.4-.36.57-.14c.4-.03.6-.04.6-.02.28.11.51.23.67.36.17.12.26.19.27.21l.15.54c.03.42.03.63,0,.64ZM126.06,5.19c.4.05.59.08.59.1.26.17.45.33.58.48.15.15.22.24.22.26l.03.56c-.06.42-.1.63-.13.63-.15.3-.24.45-.27.45-.34.2-.59.3-.74.3l-.27.07c-.41-.02-.62-.04-.62-.07-.31-.24-.57-.49-.79-.75l-.03-.04-.02-.58c.03-.43.06-.65.1-.65.15-.26.26-.42.31-.46l.46-.27.58-.02ZM122.49,3.69l-.02-.58c.03-.43.06-.65.1-.65.15-.26.26-.42.31-.46l.46-.27.58-.02c.4.05.59.08.59.1.26.17.45.33.58.48.15.15.22.24.22.26l.03.56c-.06.42-.1.63-.13.63-.15.3-.24.45-.27.45-.34.2-.59.3-.74.3l-.27.07c-.41-.02-.62-.04-.62-.07-.31-.24-.57-.49-.79-.75l-.03-.04ZM124.87,11.34l-.55.1c-.42,0-.63-.03-.64-.06-.32-.11-.48-.18-.48-.22-.24-.32-.36-.55-.38-.7l-.1-.26c-.03-.41-.03-.62,0-.62.2-.33.42-.63.65-.87l.04-.04.58-.09c.43-.02.65-.02.66.02.28.12.45.21.49.25l.33.43.09.58c0,.4-.01.6-.03.6-.14.27-.27.49-.41.64-.14.16-.21.25-.24.25Z"/>
</svg>